<svg width="1642" height="1071" viewBox="0 0 1642 1071" fill="none" xmlns="http://www.w3.org/2000/svg">
<g opacity="0.4">
<path opacity="0.4" d="M711.375 1036.18C708.777 1034.36 706.757 1033.32 705.025 1032.54C701.85 1028.91 695.212 1026.83 688.862 1026.57L647.878 972.523L647.589 972.263H647.012L642.971 970.185L601.12 968.106C601.409 967.846 601.409 967.846 601.409 967.586C590.153 964.728 583.514 963.689 579.762 964.209V962.909L569.949 961.091L567.64 956.414C567.64 956.414 524.058 953.555 509.915 955.634C508.472 955.634 507.317 955.894 506.452 956.414C505.874 956.673 505.586 956.933 505.297 957.193C504.72 957.453 504.72 957.973 504.431 958.492C502.988 961.61 505.586 965.508 510.492 969.665C509.049 969.405 507.895 968.886 506.452 968.626C468.353 959.012 432.275 939.265 423.616 942.123C423.039 942.383 422.462 942.383 422.173 942.642C421.019 943.162 419.864 943.682 418.998 944.461C373.396 931.989 227.063 898.99 189.541 890.676C189.253 883.66 180.017 885.739 182.037 890.936C182.615 893.534 183.769 896.912 188.387 901.329C209.457 906.526 389.847 950.178 406.876 972.263C407.453 972.783 407.742 973.563 407.742 973.822C408.608 985.775 261.986 942.902 248.71 939.005C233.99 936.926 231.969 939.784 243.514 946.54C254.771 949.398 370.221 990.971 443.82 1009.16C449.592 1014.62 454.788 1018.25 458.54 1018.77C472.105 1020.85 530.119 1033.84 536.757 1036.18C542.818 1038.26 563.599 1047.36 584.092 1054.37C604.873 1063.98 628.54 1066.58 627.963 1060.09C630.272 1056.97 630.56 1052.81 629.694 1047.87L635.755 1047.62L634.601 1045.28L641.239 1045.8C649.609 1053.85 659.423 1060.61 674.431 1065.54C687.997 1069.96 707.334 1071.78 709.932 1065.02C710.221 1064.76 710.509 1064.5 710.798 1064.24C711.952 1066.84 713.107 1069.44 713.107 1071C713.107 1071 718.302 1065.28 714.839 1057.23C714.839 1056.71 715.127 1056.45 715.127 1055.93C716.57 1058.27 718.014 1060.35 718.302 1061.65C718.302 1061.65 721.188 1054.63 715.416 1046.32C714.839 1045.54 714.261 1044.76 713.684 1044.24C717.725 1047.1 721.766 1050.21 723.786 1052.03C724.652 1052.29 721.766 1043.72 711.375 1036.18Z" fill="#8787FF"/>
<path opacity="0.4" d="M1175.2 903.408C1172.6 901.849 1170 900.03 1166.54 898.211C1166.25 897.951 1165.96 897.951 1165.96 897.691C1164.23 896.652 1162.21 895.613 1160.19 894.573C1159.61 893.794 1159.03 893.014 1158.74 892.235C1151.24 880.802 1143.74 881.842 1125.26 862.874C1107.08 843.906 1123.82 867.551 1110.54 855.598C1096.98 843.646 1097.84 846.504 1096.69 849.362C1095.82 852.221 1096.11 851.441 1083.7 844.945C1072.16 838.709 1075.91 842.607 1077.06 847.284L1075.04 846.764L1075.33 847.024C1074.75 847.024 1074.18 847.284 1073.6 847.803C1069.85 845.725 1066.67 844.426 1064.65 843.906C1064.65 843.906 1064.65 843.906 1064.94 843.906C1064.94 843.906 1060.61 842.607 1055.42 841.308C1050.22 839.229 909.949 771.153 907.063 773.491C905.331 771.932 903.311 770.373 901.29 768.814C899.847 766.995 898.116 765.176 896.095 763.098L895.806 762.838C895.806 762.838 895.807 762.838 895.518 762.578L895.229 762.318L894.941 762.058L894.652 761.799L894.363 761.539L894.075 761.279C893.786 761.279 893.786 761.019 893.498 761.019C893.498 761.019 893.209 761.019 893.209 760.759C890.034 758.681 746.299 725.162 739.083 720.745C738.506 720.485 737.929 719.965 737.351 719.706L737.063 719.446C736.486 719.186 735.908 718.666 735.331 718.406C735.043 718.147 734.754 718.147 734.754 717.887C734.465 717.627 734.177 717.367 733.599 717.367C655.093 666.96 635.756 679.951 630.849 686.967L488.557 663.582C486.248 662.283 483.65 661.243 481.053 659.944C477.589 657.346 472.394 655.787 466.044 654.488C466.044 654.488 454.788 659.944 416.401 641.756C399.083 633.441 391.29 649.811 399.083 652.929C435.45 667.219 440.068 677.093 467.487 688.526C842.122 845.465 448.438 749.586 445.552 748.807C415.535 741.532 361.562 730.879 304.703 712.43C304.126 712.171 303.837 712.17 303.26 711.911C255.637 696.321 210.611 683.589 191.273 675.794C190.696 675.534 190.119 675.274 189.542 675.274C189.253 675.274 189.253 675.274 188.964 675.014C188.387 674.754 188.098 674.755 187.81 674.495C187.521 674.495 187.233 674.235 187.233 674.235C186.944 674.235 186.655 673.975 186.367 673.975C186.078 673.975 185.789 673.715 185.501 673.715C185.212 673.715 184.924 673.455 184.635 673.455C184.346 673.455 184.058 673.196 183.769 673.196C183.192 672.936 182.903 672.936 182.326 672.936C182.326 673.195 182.326 673.196 182.037 673.455V673.715C182.037 673.715 182.037 673.975 181.749 673.975L181.46 674.235C180.883 674.754 180.594 675.274 180.017 675.794V674.755C180.017 674.755 158.947 676.833 170.204 678.132C171.647 678.392 173.09 678.392 174.533 678.652C174.533 678.652 174.533 678.652 174.822 678.652C175.11 678.652 175.399 678.652 175.688 678.652H175.976C176.265 678.652 176.553 678.652 176.842 678.652H177.131C177.419 678.652 177.419 678.652 177.708 678.652C177.997 678.652 177.997 678.652 178.285 678.652H178.574C178.862 678.652 178.862 678.652 179.151 678.652C179.151 679.951 180.017 681.25 181.749 683.069C196.18 686.967 249.287 705.155 300.951 725.682C360.119 749.327 419.576 761.799 427.368 774.011C429.1 776.609 428.523 778.948 425.925 780.507C422.173 783.365 413.226 784.924 399.949 784.404H399.66C398.506 784.404 397.351 784.404 396.197 784.144C395.908 784.144 395.908 784.144 395.62 784.144C394.465 784.144 393.022 783.884 391.579 783.884C391.29 783.884 391.002 783.884 391.002 783.884C389.847 783.884 388.693 783.625 387.538 783.625C387.25 783.625 386.961 783.625 386.384 783.625C384.941 783.365 383.497 783.365 382.054 783.105C381.766 783.105 381.477 783.105 381.477 783.105C380.323 782.845 378.879 782.585 377.725 782.585C377.436 782.585 376.859 782.325 376.57 782.325C375.127 782.066 373.396 781.806 371.952 781.546C359.542 779.207 346.553 775.83 333.854 771.932C292.003 759.2 86.2139 698.919 85.9253 699.179C85.9253 699.179 83.9049 711.131 85.9253 708.273C85.9253 708.273 325.772 784.404 378.879 799.734C437.182 816.623 478.744 828.056 507.606 835.591C519.151 842.087 537.335 851.181 564.754 863.913C570.815 867.291 577.742 868.85 581.494 867.291C581.783 867.291 581.783 867.031 582.071 867.031C595.925 866.771 612.088 862.614 616.418 860.795C616.995 861.315 617.572 861.834 617.861 861.834L619.881 862.094C620.17 862.094 620.17 861.834 619.881 861.834C620.458 862.354 621.324 863.134 621.613 863.134L623.922 863.393C624.211 863.393 624.211 863.134 623.922 862.874C624.788 863.653 625.942 864.433 626.231 864.693H628.251V864.433L628.54 864.173C636.621 866.771 644.703 869.37 652.496 871.708C653.073 874.306 653.362 880.283 656.825 880.802C658.557 882.101 663.752 884.18 665.195 885.219C671.834 887.298 687.997 892.235 709.355 898.471L761.019 943.942C761.019 943.942 806.044 953.815 807.776 948.099C808.353 945.761 795.365 933.289 779.491 919.258C781.8 920.037 784.397 920.557 786.706 921.336C804.89 936.926 819.032 946.28 827.691 950.697C830.289 953.036 832.598 955.115 834.618 956.154C838.659 958.233 876.757 959.012 893.498 951.996C906.197 955.634 916.01 958.233 921.494 959.532C922.36 959.792 922.937 959.792 923.803 960.051C924.092 960.051 924.38 960.051 924.38 960.311C924.958 960.311 925.246 960.571 925.824 960.571C926.112 960.571 926.401 960.571 926.689 960.571C926.978 960.571 927.555 960.571 927.844 960.831C928.132 960.831 928.421 960.831 928.421 960.831H928.71C943.141 966.547 1070.14 1020.85 1070.42 1002.92V1002.66C1070.42 1001.88 1069.56 1000.85 1068.4 999.546C1068.69 996.688 1065.52 991.231 1059.75 984.476C1058.01 982.397 1056.28 980.578 1055.42 979.799L1055.99 978.24L1067.83 981.618C1118.91 1006.56 1128.15 1006.3 1129.02 1003.7C1129.3 1003.44 1129.3 1003.18 1129.3 1002.66C1129.88 1002.92 1130.17 1003.18 1130.17 1003.18C1130.17 1003.18 1129.88 1002.92 1129.3 1002.4C1128.15 999.026 1118.62 991.751 1129.88 977.72C1152.11 949.918 1220.22 931.989 1175.2 903.408Z" fill="#8787FF"/>
</g>
<path d="M172.224 645.912C172.224 645.912 205.993 668.518 216.672 666.699C227.351 664.88 213.209 653.967 207.436 651.369C201.664 648.77 181.171 642.015 181.171 642.015L172.224 645.912Z" fill="#E0D6A9"/>
<path d="M181.171 642.015C181.171 642.015 185.789 643.574 190.985 645.393C188.676 647.731 184.058 649.55 178.862 650.069C174.822 647.731 172.224 645.912 172.224 645.912L181.171 642.015Z" fill="#B7AD84"/>
<path d="M76.112 696.58C76.112 696.58 89.6774 731.397 81.0186 736.853C77.2665 739.192 66.876 731.137 66.5874 728.019C64.567 712.429 68.3191 696.839 68.3191 696.839L76.112 696.58Z" fill="#E0D6A9"/>
<path d="M76.112 696.58C76.112 696.58 77.5551 700.477 79.2868 706.194C76.9778 706.713 74.3802 706.973 71.7826 706.973C69.7622 706.973 68.0305 706.973 66.2987 706.713C66.876 700.997 68.0305 697.099 68.0305 697.099L76.112 696.58Z" fill="#B7AD84"/>
<path d="M166.163 408.944C176.553 429.731 212.054 474.942 210.611 520.672C208.879 579.655 190.696 629.802 191.273 640.196C191.273 640.196 180.305 654.227 167.606 639.676C167.606 639.676 188.964 577.316 180.594 526.389C174.533 489.492 154.041 468.706 139.898 473.902C121.715 480.658 128.642 536.522 115.365 591.607C103.82 639.936 83.039 682.289 83.3276 695.8C74.9575 701.516 68.0305 695.02 63.4125 694.501C62.258 680.73 83.039 640.455 87.9456 587.19C93.7181 525.09 81.5958 466.367 83.039 443.242C95.1612 376.205 153.752 389.457 166.163 408.944Z" fill="#1C1618"/>
<path d="M210.034 532.625C206.57 586.41 190.696 630.582 191.273 640.196C191.273 640.196 180.305 654.227 167.606 639.676C167.606 639.676 180.305 602.52 182.326 562.246C193.005 553.931 202.53 543.798 210.034 532.625Z" fill="#56313F"/>
<path d="M103.531 589.269C107.861 589.269 112.19 589.009 116.231 588.749C115.942 589.788 115.942 590.568 115.654 591.607C104.109 639.936 83.3275 682.289 83.6162 695.8C75.2461 701.516 68.3191 695.02 63.7011 694.501C62.5466 680.73 83.0389 641.235 87.9455 588.489C93.1408 589.009 98.336 589.269 103.531 589.269Z" fill="#1C1618"/>
<path d="M132.105 451.817C113.056 458.573 94.2953 459.612 83.3275 454.935C83.3275 450.258 83.3275 446.36 83.3275 442.982C85.0593 432.849 87.9455 424.534 91.6976 417.779C97.4701 413.881 104.686 410.243 112.479 407.645C132.971 400.37 152.886 399.85 163.565 405.566C164.72 406.606 165.586 407.905 166.451 409.204C167.895 411.802 169.626 414.92 171.647 418.298C170.492 429.731 154.618 443.762 132.105 451.817Z" fill="#4C2936"/>
<path d="M152.886 475.461C166.452 476.241 183.192 496.248 188.387 528.727C196.469 579.655 175.399 642.014 175.399 642.014C177.131 644.093 178.863 645.392 180.306 646.432C176.554 646.432 172.513 644.873 167.895 639.676C167.895 639.676 189.253 577.316 180.883 526.389C176.554 499.626 164.431 481.438 152.886 475.461Z" fill="#4C2936"/>
<path d="M88.2342 586.93C94.0067 524.83 81.8845 466.107 83.3276 442.982C92.275 393.094 127.199 387.898 149.423 396.732C127.487 391.795 98.6247 400.63 90.8319 445.321C89.6774 468.446 101.511 527.168 95.7385 589.268C90.8319 642.794 70.0509 682.808 71.2054 696.579C72.3599 696.839 73.803 697.359 75.5347 697.879C70.9168 697.359 66.876 694.761 63.9898 694.241C62.5466 680.47 83.3276 640.455 88.2342 586.93Z" fill="#4C2936"/>
<path d="M228.506 344.765C242.071 334.112 162.699 275.39 142.784 285.523C112.767 300.334 198.2 351.001 217.827 352.56L228.506 344.765Z" fill="#ED8F4F"/>
<path d="M182.037 337.49C187.232 328.136 193.582 319.562 201.664 310.208C204.839 312.546 207.725 314.885 210.611 317.223C202.818 326.057 196.757 334.112 192.139 342.947C188.676 341.388 185.501 339.569 182.037 337.49Z" fill="#FFC107"/>
<path d="M175.688 334.112C181.46 324.758 187.81 315.404 195.025 305.531C196.18 306.31 197.046 307.09 198.2 307.869C190.696 318.003 184.635 326.577 178.862 336.191C177.997 335.411 176.842 334.892 175.688 334.112Z" fill="#FFC107"/>
<path d="M170.492 330.475C176.265 321.121 182.326 312.026 189.83 302.153C190.985 302.932 192.139 303.452 193.005 304.232C185.501 314.365 179.44 322.939 173.667 332.553C172.513 332.034 171.647 331.254 170.492 330.475Z" fill="#FFC107"/>
<path opacity="0.2" d="M138.743 288.382C138.743 308.649 203.395 345.545 220.136 346.844L229.949 339.569C230.526 341.647 230.238 343.466 228.506 344.506L217.827 352.301C199.355 351.001 122.58 306.05 138.743 288.382Z" fill="#892700"/>
<path d="M171.358 416.739C168.472 393.614 170.781 360.096 171.935 354.379C173.667 344.765 182.903 300.074 166.163 289.421C141.918 273.831 80.1527 269.414 70.3394 326.837C68.0304 341.128 79.8641 367.111 84.482 389.717C88.8114 411.802 77.555 433.368 89.9659 445.581C107.572 462.21 173.378 431.29 171.358 416.739Z" fill="#ED8F4F"/>
<path d="M84.482 389.717C84.1934 387.898 83.6161 386.339 83.3275 384.52C122.292 382.181 148.268 372.308 171.935 353.34C171.935 353.6 171.647 354.12 171.647 354.379C171.358 355.679 171.069 358.017 170.781 361.135C152.886 377.245 127.776 386.079 84.482 389.717Z" fill="#FFC107"/>
<path d="M82.1731 377.245C122.581 375.166 152.02 365.552 173.379 346.844C173.379 347.624 173.09 348.403 173.09 348.923C154.329 366.072 127.776 375.946 82.7504 380.103C82.7504 379.064 82.4617 378.024 82.1731 377.245Z" fill="#FFC107"/>
<path d="M81.0186 373.087C80.73 372.308 80.4414 371.268 80.1527 370.229C122.581 368.41 152.598 358.537 174.533 338.529C174.533 339.049 174.244 339.569 174.244 340.348C155.195 358.537 128.642 368.93 81.0186 373.087Z" fill="#FFC107"/>
<path d="M107.572 280.327C116.231 279.028 129.508 285.523 137.012 295.137C144.516 304.751 143.65 313.586 134.703 315.145C126.044 316.444 112.767 309.948 105.263 300.334C97.7588 290.46 98.9133 281.626 107.572 280.327Z" fill="#D67B3E"/>
<path opacity="0.3" d="M84.482 389.717C79.8641 367.111 68.0304 341.388 70.3394 326.837C75.8233 293.838 128.93 343.466 126.044 361.655C122.292 383.74 89.6773 425.833 102.377 437.786C113.056 447.919 141.918 440.384 162.122 429.731C143.65 443.762 103.243 458.053 90.2545 445.581C77.5551 433.369 89.1 411.802 84.482 389.717Z" fill="#892700"/>
<path d="M164.143 320.601C162.988 321.121 165.297 311.507 170.492 307.609C173.956 305.011 177.419 303.452 177.997 305.271C178.574 307.35 175.976 306.31 173.09 310.468C170.204 314.625 179.728 314.625 164.143 320.601Z" fill="#FFBA97"/>
<path d="M210.611 353.08C204.839 348.403 208.013 342.947 214.075 336.97C220.136 330.994 226.774 326.837 232.547 331.514C238.319 336.191 238.03 344.765 231.969 350.742C225.62 356.718 216.095 357.757 210.611 353.08Z" fill="#FFC107"/>
<path d="M202.53 298.255C210.034 303.712 235.721 329.435 235.144 342.947C234.567 354.899 223.022 356.978 214.075 347.364C206.859 339.829 204.839 314.365 198.2 301.114C197.046 298.775 202.53 298.255 202.53 298.255Z" fill="#FFB894"/>
<path d="M201.087 298.515C200.798 298.775 200.798 299.295 201.087 299.814C207.725 313.066 209.745 338.27 216.961 346.065C221.868 351.261 227.351 352.82 231.392 351.521C227.063 355.159 219.847 354.119 213.786 347.883C206.57 340.348 204.55 314.885 197.912 301.633C197.334 299.554 199.643 298.775 201.087 298.515Z" fill="#F9A580"/>
<path d="M175.688 300.854L203.396 286.563L204.261 287.342L170.781 320.341L169.626 319.822L175.688 300.854Z" fill="#AA9083"/>
<path d="M176.553 301.373L204.261 287.342L198.2 306.05L170.492 320.341L176.553 301.373Z" fill="#CCBAB0"/>
<path d="M176.553 301.373L204.261 287.342L170.492 320.341L176.553 301.373Z" fill="#DBC8BF"/>
<path d="M204.261 287.082C201.952 286.823 196.18 292.539 197.623 293.838C199.066 295.137 204.55 289.941 205.416 288.901L204.261 287.082Z" fill="#FFBA97"/>
<path d="M203.973 290.98C202.818 289.941 199.066 294.098 199.932 295.657C200.798 297.216 204.261 293.838 204.55 293.059L203.973 290.98Z" fill="#FFBA97"/>
<path d="M203.684 295.137C202.53 294.098 199.066 297.476 199.643 299.035C200.221 300.594 203.396 297.736 203.973 296.956L203.684 295.137Z" fill="#FFBA97"/>
<path d="M108.438 280.847C116.231 279.547 128.353 285.524 134.991 294.358C141.918 302.932 141.053 310.987 132.971 312.286C125.178 313.586 113.056 307.609 106.418 298.775C99.4906 290.201 100.645 282.146 108.438 280.847Z" fill="#FFB894"/>
<path d="M133.837 399.07C151.154 394.134 103.243 312.027 80.7299 314.365C46.3836 317.743 102.088 394.653 119.406 402.968L133.837 399.07Z" fill="#ED8F4F"/>
<path d="M93.7181 376.725C102.954 370.229 113.056 364.513 124.89 359.316C126.621 362.694 128.353 365.812 129.796 368.93C118.251 374.127 109.015 379.064 100.356 385.559C98.3361 382.701 96.0271 379.843 93.7181 376.725Z" fill="#FFC107"/>
<path d="M89.6773 371.268C99.4905 364.773 109.881 358.796 121.426 352.301C122.003 353.34 122.869 354.379 123.446 355.419C111.613 361.914 102.088 367.371 91.9863 374.127C91.1204 373.347 90.2545 372.308 89.6773 371.268Z" fill="#FFC107"/>
<path d="M86.214 366.072C96.0272 359.576 106.129 353.6 117.674 347.364C118.251 348.403 119.117 349.442 119.694 350.482C107.861 356.978 98.0476 362.434 88.2343 369.19C87.6571 368.15 86.7912 367.111 86.214 366.072Z" fill="#FFC107"/>
<path opacity="0.4" d="M73.2258 316.963C64.8556 335.671 108.149 392.055 122.869 399.071L136.146 395.693C136.435 395.693 136.723 395.433 137.012 395.173C136.435 396.992 135.569 398.291 133.837 398.811L118.54 402.448C102.954 394.913 56.4855 331.254 73.2258 316.963Z" fill="#892700"/>
<path d="M104.397 283.445V271.493L115.365 273.571L131.817 292.799C132.105 296.696 120.272 308.909 104.397 283.445Z" fill="#FFB894"/>
<path d="M135.28 448.179L147.114 441.943V447.4L135.28 453.636V448.179Z" fill="#774D5D"/>
<path d="M112.479 399.85C107.861 394.134 112.19 389.457 119.406 384.78C126.621 380.103 134.126 377.245 138.744 382.701C143.362 388.417 141.053 396.732 133.837 401.409C126.333 406.346 116.808 405.566 112.479 399.85Z" fill="#FFC107"/>
<path opacity="0.3" d="M78.1324 312.546C76.9779 312.546 75.8234 312.546 74.6689 312.546C80.4413 298.255 89.966 289.421 101.511 284.484C102.088 283.185 103.243 282.146 104.686 281.366V271.493L115.654 273.571L120.849 279.807C124.89 279.547 128.642 279.547 132.394 279.807C134.703 282.406 136.146 285.264 136.146 288.382C136.146 301.633 110.17 312.546 78.1324 312.546Z" fill="#892700"/>
<path d="M142.784 270.713C144.227 236.675 106.418 227.84 124.312 217.967C124.312 217.967 163.565 214.069 145.382 270.193C142.784 270.713 147.402 274.351 142.784 270.713Z" fill="#593D30"/>
<path d="M98.9133 268.375C94.0067 248.887 95.4498 231.219 105.552 222.904C115.942 214.849 141.918 216.408 149.134 242.911C150.577 248.368 151.443 251.486 151.443 256.682C151.443 257.981 148.557 261.359 147.98 262.918C147.402 264.737 150.289 268.375 150 269.674C147.691 284.484 142.784 289.161 135.28 291.76C129.508 293.838 112.479 288.122 111.324 283.445C105.552 260.06 100.645 275.39 98.9133 268.375Z" fill="#F9A580"/>
<path d="M106.995 228.88C109.304 222.904 119.406 220.565 130.085 223.423C140.764 226.541 147.691 233.817 145.382 239.793C143.362 245.769 132.971 248.108 122.292 245.249C111.901 242.391 104.974 234.856 106.995 228.88Z" fill="#EDB08E"/>
<path d="M124.89 263.438C113.633 240.832 129.219 223.683 113.633 219.266C125.755 216.408 143.362 221.865 149.134 242.911C150.577 248.367 151.443 251.485 151.443 256.682C151.443 257.981 148.557 261.359 147.98 262.918C147.402 264.737 149.711 268.115 150 269.154C150.577 271.752 148.268 282.665 146.536 285.524C143.939 289.941 134.991 293.059 133.26 292.019C122.003 285.783 132.682 279.028 124.89 263.438Z" fill="#FFB894"/>
<path d="M117.963 244.47C117.963 244.47 117.097 271.753 125.755 276.17C134.414 280.587 150 268.635 150 268.635C150.288 269.154 150.288 269.414 150.288 269.674C150.288 269.934 150.288 270.194 150.288 270.453C150.288 274.611 148.268 282.925 146.825 285.784C144.227 289.941 136.435 294.098 134.126 293.319C127.199 293.838 112.19 287.862 111.324 283.445C105.84 260.06 100.645 275.39 98.9133 268.375C94.0067 248.887 117.963 244.47 117.963 244.47Z" fill="#9B7A6D"/>
<path d="M127.199 276.689C136.723 278.768 149.711 268.634 149.711 268.634C150 269.154 150 269.414 150 269.674C150 269.934 150 270.193 150 270.453C150 274.611 147.98 282.925 146.536 285.783C143.939 289.941 136.146 294.098 133.837 293.319C132.682 293.579 130.951 293.319 129.219 293.059L127.199 276.689Z" fill="#B79488"/>
<path d="M144.228 276.17C142.496 285.264 134.126 284.484 134.126 280.847L144.228 276.17Z" fill="#422F27"/>
<path d="M115.654 274.611C103.531 241.092 138.744 231.998 92.5636 223.943C92.5636 223.943 73.2257 240.313 104.974 279.807C106.418 275.65 109.304 273.311 115.654 274.611Z" fill="#422F27"/>
<path d="M119.694 239.013C129.796 243.95 154.041 240.053 147.402 230.179C140.764 220.046 132.971 213.81 115.942 214.329C96.3156 215.109 84.482 227.841 89.3887 238.754C94.0067 249.407 106.418 232.518 119.694 239.013Z" fill="#593D30"/>
<path d="M145.671 257.202C150.577 255.643 151.732 255.903 151.732 255.903V257.462L145.671 259.8V257.202Z" fill="#593D30"/>
<path d="M139.321 259.021V261.879L126.044 266.556L125.178 264.997C131.528 261.879 136.146 260.06 139.321 259.021Z" fill="#593D30"/>
<path d="M113.056 267.335C112.767 271.493 117.097 273.311 112.767 275.91C107.861 278.768 100.068 268.894 104.975 264.477C108.727 260.839 113.056 263.698 113.056 267.335Z" fill="#F9A580"/>
<path d="M136.723 265.257L131.528 267.335C131.528 267.335 133.26 274.35 136.723 265.257Z" fill="#513D35"/>
<path d="M147.402 261.359L143.939 262.658C143.939 262.658 145.382 269.934 147.402 261.359Z" fill="#513D35"/>
<path d="M142.496 277.729C141.341 283.705 135.857 283.185 135.857 280.587L142.496 277.729Z" fill="#FFDECF"/>
<path d="M128.353 240.572C128.353 240.572 119.694 238.234 108.727 230.959C97.7589 223.683 93.1409 226.801 93.1409 226.801C93.1409 226.801 109.881 233.817 118.54 259.54C118.54 259.54 113.633 240.313 128.353 240.572Z" fill="#593D30"/>
<path d="M141.918 259.021C141.918 259.021 147.114 269.154 149.134 274.87C148.557 275.39 147.402 276.17 146.536 276.429C143.939 276.689 140.764 275.39 139.321 274.351L141.918 259.021Z" fill="#FFB894"/>
<path d="M147.402 275.39C146.248 270.193 143.073 261.879 141.918 259.281V259.021C141.918 259.021 147.114 269.154 149.134 274.87C148.557 275.39 147.402 276.169 146.536 276.429C146.248 276.429 145.671 276.429 145.382 276.429C145.959 276.169 146.825 275.65 147.402 275.39Z" fill="#FFCAB3"/>
<path d="M147.402 234.336C147.402 235.376 144.516 243.43 135.857 245.769C135.857 245.769 140.187 237.454 138.455 235.635L147.402 234.336Z" fill="#593D30"/>
<path d="M142.207 235.376C141.918 236.415 137.3 243.69 128.064 244.21C128.064 244.21 134.414 236.935 133.26 234.856L142.207 235.376Z" fill="#593D30"/>
<path d="M134.703 235.116C134.414 236.155 129.796 243.431 120.56 243.95C120.56 243.95 126.91 236.675 125.755 234.596L134.703 235.116Z" fill="#593D30"/>
<path d="M149.423 236.415C150 235.636 152.309 227.321 147.114 222.124C147.114 222.124 145.671 230.959 143.65 231.998L149.423 236.415Z" fill="#593D30"/>
<path d="M144.805 228.36C145.093 227.321 144.805 219.006 138.455 215.109C138.455 215.109 139.898 223.943 138.166 225.242L144.805 228.36Z" fill="#593D30"/>
<path d="M120.272 217.707C119.694 216.928 112.19 211.471 104.975 213.29C104.975 213.29 113.345 218.227 113.345 220.305L120.272 217.707Z" fill="#593D30"/>
<path d="M104.686 218.227C103.531 217.967 94.2954 217.447 89.3887 222.644C89.3887 222.644 99.4906 222.124 100.645 223.943L104.686 218.227Z" fill="#593D30"/>
<path d="M167.317 320.601C167.317 338.27 154.329 392.055 141.341 398.031C127.776 404.267 119.694 400.37 119.406 395.693C118.251 378.024 156.061 345.025 163.277 319.562C163.854 317.743 167.317 320.601 167.317 320.601Z" fill="#FFB894"/>
<path d="M163.277 319.562C163.854 317.743 167.606 320.601 167.606 320.601C167.606 320.861 167.606 321.38 167.606 321.9C156.061 345.805 126.044 373.867 127.199 389.717C127.487 394.134 134.703 397.771 147.114 392.835C145.382 395.433 143.362 397.252 141.63 398.031C128.064 404.267 119.983 400.37 119.694 395.693C118.251 378.024 156.061 345.025 163.277 319.562Z" fill="#F9A580"/>
<path d="M166.452 329.695C171.647 323.199 175.976 322.42 175.976 322.42L173.956 312.546C173.956 312.546 168.472 302.413 161.256 324.758L159.525 339.309L166.452 329.695Z" fill="#FFB894"/>
<path d="M184.923 309.948C184.058 308.648 178.862 312.026 176.553 311.767C174.533 311.507 167.895 310.987 167.895 310.987C166.163 312.546 164.72 315.924 163.565 320.341C163.565 320.341 174.822 315.404 176.842 315.144C178.862 315.144 186.655 312.546 184.923 309.948Z" fill="#FFB894"/>
<path d="M180.883 315.404C180.306 314.365 177.419 315.404 175.688 315.145C173.956 314.885 171.07 315.664 171.07 315.664L170.781 318.263C170.781 318.263 174.533 319.042 175.976 319.042C177.708 318.782 182.326 317.483 180.883 315.404Z" fill="#FFB894"/>
<path d="M179.44 318.782C178.862 317.743 176.553 318.782 175.11 318.522C173.378 318.262 170.492 318.782 170.492 318.782L170.204 321.38C170.204 321.38 173.956 322.16 175.399 322.16C176.842 322.16 180.594 320.861 179.44 318.782Z" fill="#FFB894"/>
<path d="M178.285 305.79L180.017 304.751L179.151 308.129L177.419 309.168L178.285 305.79Z" fill="#AA9083"/>
<path d="M191.273 429.471C186.367 429.471 182.037 429.211 177.708 428.951L178.285 423.755C187.81 424.794 199.355 424.534 212.343 423.235L212.92 428.432C205.416 428.951 197.912 429.471 191.273 429.471ZM247.555 422.456L246.112 417.519C257.08 415.18 268.047 412.062 279.015 408.425L281.036 413.361C269.779 416.739 258.523 419.857 247.555 422.456ZM313.073 401.149L310.475 396.472C320.866 392.055 331.256 386.858 340.492 381.662L343.667 386.079C334.143 391.535 323.752 396.472 313.073 401.149ZM372.53 367.891L368.778 363.733C378.014 356.978 386.384 349.962 393.599 342.687L397.929 346.065C390.424 353.86 381.766 361.135 372.53 367.891ZM418.998 321.121L414.092 318.522C415.535 316.444 416.689 314.625 417.844 312.546L423.039 315.144C421.884 316.963 420.441 319.042 418.998 321.121Z" fill="#E2E7FF"/>
<path d="M664.907 290.46C658.268 282.405 650.764 274.61 642.394 267.595L646.435 263.697C655.093 270.973 662.886 278.768 669.813 287.342L664.907 290.46ZM465.467 262.918L460.56 260.32C466.91 250.706 474.991 242.651 484.516 236.675L487.98 240.832C479.032 246.549 471.528 254.084 465.467 262.918ZM615.263 249.147C605.45 243.69 595.059 239.013 584.669 235.636L586.689 230.699C597.368 234.336 608.047 239.013 618.149 244.73L615.263 249.147ZM518.285 229.14L517.131 223.943C528.098 221.864 540.221 221.605 552.631 222.904L552.054 228.1C540.221 226.801 528.676 227.321 518.285 229.14Z" fill="#E2E7FF"/>
<path d="M246.362 208.356C247.805 208.876 249.537 206.277 250.114 202.64C250.691 199.002 250.114 195.624 248.671 195.104C247.228 194.585 245.496 197.183 244.919 200.821C244.053 204.459 244.919 207.836 246.362 208.356Z" fill="#F9A580"/>
<path d="M404.528 637.86C404.528 637.86 413.476 666.182 399.333 664.883C384.902 663.324 396.447 637.86 396.447 637.86H404.528Z" fill="#E0D6A9"/>
<path d="M347.958 602.523C347.958 602.523 319.961 623.829 309.282 615.774C308.994 608.759 338.145 600.184 338.145 600.184L347.958 602.523Z" fill="#E0D6A9"/>
<path d="M321.982 194.585C318.807 196.404 276.379 244.992 272.338 268.897C272.338 268.897 280.708 282.928 287.058 281.889C291.387 281.109 336.413 242.654 344.494 216.93C347.958 204.718 354.596 176.137 321.982 194.585Z" fill="#2A52E6"/>
<path d="M317.075 204.978C318.23 230.182 287.635 273.574 281.574 280.07C283.306 281.369 285.326 282.668 286.769 281.889C355.462 236.418 321.693 199.521 317.075 204.978Z" fill="#1D3BAB"/>
<path d="M316.209 316.446C301.778 350.225 327.466 503.007 336.413 601.483C336.413 601.483 342.474 605.121 348.824 602.523C348.824 602.523 348.246 419.081 351.71 414.144C375.089 424.797 383.747 554.194 394.715 640.458C395.292 645.915 405.971 640.458 405.971 640.458C405.971 640.458 411.455 404.79 410.589 348.926C409.724 288.904 334.681 273.314 316.209 316.446Z" fill="#384947"/>
<path d="M342.474 441.686C335.836 473.126 341.32 578.358 341.897 603.302C343.629 603.562 345.938 603.302 347.958 602.523C347.958 602.523 348.247 419.86 351.999 414.923C347.669 417.781 344.206 434.151 342.474 441.686Z" fill="#243331"/>
<path d="M411.167 350.485C410.589 300.857 358.06 278.251 329.486 296.439C358.926 284.487 396.735 317.486 397.313 363.736C397.89 417.522 399.044 625.388 398.756 642.017C401.642 641.498 405.106 642.017 405.106 642.017C405.106 642.017 412.033 406.349 411.167 350.485Z" fill="#243331"/>
<path opacity="0.6" d="M410.012 368.413C415.207 355.681 396.158 325.801 365.275 315.927C347.669 310.211 324.291 326.58 312.168 328.659C298.026 382.704 399.91 393.617 410.012 368.413Z" fill="#243331"/>
<path d="M311.303 342.949C317.075 365.295 379.418 392.837 406.549 368.413C416.939 359.059 414.053 318.525 422.134 250.709C424.732 228.883 390.674 201.081 374.511 195.624C343.34 184.971 328.331 189.388 313.323 209.135C301.201 224.466 308.128 285.007 311.303 342.949Z" fill="#2B53E8"/>
<path d="M417.805 296.959C418.094 294.621 418.094 292.022 418.382 289.684C367.007 300.077 319.095 261.882 306.685 250.709C306.685 253.047 306.685 255.646 306.685 258.244C351.421 301.116 394.715 301.116 417.805 296.959Z" fill="#FFC107"/>
<path d="M416.362 314.368C416.651 312.029 416.651 309.691 416.939 307.093C367.296 316.706 321.116 281.629 306.973 269.157C306.973 271.755 307.262 274.354 307.262 276.952C351.421 318.265 393.561 318.525 416.362 314.368Z" fill="#FFC107"/>
<path opacity="0.4" d="M386.922 274.873C385.479 311.51 399.622 340.611 412.033 339.831C413.187 339.831 414.053 339.572 415.208 339.052C416.939 315.407 418.094 284.747 422.135 250.709C425.021 224.985 389.809 206.537 386.922 274.873Z" fill="#4746A2"/>
<path d="M377.975 210.435C382.593 200.821 373.646 189.388 365.275 189.388C352.576 189.388 337.567 198.742 331.795 210.435C326.022 222.127 331.795 231.481 344.494 231.481C357.194 231.481 372.202 222.127 377.975 210.435Z" fill="#1D3BAB"/>
<path d="M373.934 206.537C379.418 195.884 375.377 187.569 364.987 187.829C354.596 188.089 341.608 196.923 336.124 207.576C330.64 218.229 334.681 226.544 345.072 226.284C355.751 226.024 368.45 217.19 373.934 206.537Z" fill="#FFB894"/>
<path opacity="0.3" d="M369.893 193.286C347.958 194.845 340.165 201.34 341.031 211.214C341.319 215.631 370.759 222.127 401.931 213.033C401.642 212.773 378.552 194.325 369.893 193.286Z" fill="#892700"/>
<path d="M341.897 207.316L342.474 182.373L377.686 169.901L375.377 197.703C375.377 197.703 375.666 209.395 361.812 215.371C356.328 217.97 339.299 215.111 341.897 207.316Z" fill="#F9A580"/>
<path d="M340.165 211.214L342.474 182.373L373.068 186.01C373.068 186.01 361.523 211.734 350.267 214.592C347.669 215.111 342.474 214.332 340.165 211.214Z" fill="#FFB894"/>
<path d="M390.097 226.284C374.511 258.764 416.939 311.77 435.411 326.58C435.411 326.58 451.285 326.58 453.306 321.124C455.326 315.667 416.362 171.2 390.097 226.284Z" fill="#2A52E6"/>
<path d="M415.207 220.828C430.793 249.669 445.224 313.588 443.493 316.966C442.338 319.045 434.257 322.163 431.082 322.683C432.814 324.242 434.257 325.541 435.411 326.58C435.411 326.58 451.285 326.58 453.306 321.124C454.749 317.226 435.7 243.953 415.207 220.828Z" fill="#1D3BAB"/>
<path d="M325.734 165.743C319.673 162.106 315.632 163.405 319.095 155.87C322.27 148.335 323.136 149.114 319.673 145.996C315.921 142.618 312.746 140.799 321.982 136.642C331.218 132.485 309.282 130.666 325.157 127.028C341.031 123.39 336.702 114.296 347.669 116.115C358.637 117.934 356.039 112.218 365.853 119.753C375.666 127.288 380.861 103.643 384.325 124.43C387.788 145.217 395.004 140.28 389.231 155.87C382.881 171.72 325.734 165.743 325.734 165.743Z" fill="#6D3C23"/>
<path d="M384.036 124.689C380.573 103.903 375.377 127.548 365.564 120.012C355.751 112.477 358.349 118.194 347.669 116.375C366.141 121.052 379.707 136.902 379.707 155.61C379.707 158.208 379.418 160.806 378.841 163.145C383.747 161.586 387.5 159.247 388.654 155.869C395.004 140.539 387.5 145.476 384.036 124.689Z" fill="#5B2E1A"/>
<path d="M378.264 180.814C382.882 162.106 378.841 142.358 369.028 134.304C359.214 126.509 334.104 128.068 327.177 153.271C325.734 158.468 324.868 161.326 324.868 166.523C324.868 167.822 327.754 170.94 328.332 172.499C328.909 174.318 326.311 177.696 326.311 178.735C328.332 193.026 334.393 204.978 341.32 207.836C356.04 213.553 373.646 199.522 378.264 180.814Z" fill="#F9A580"/>
<path d="M367.584 140.02C365.564 134.303 355.462 131.965 345.36 134.823C335.259 137.681 328.62 144.957 330.641 150.673C332.661 156.389 342.763 158.728 352.865 155.869C362.966 152.752 369.605 145.736 367.584 140.02Z" fill="#EDB08E"/>
<path d="M353.73 176.396C353.73 152.751 346.226 135.083 361.235 130.926C349.69 128.327 332.661 133.264 326.888 153.531C325.445 158.728 324.579 161.586 324.579 166.782C324.579 168.082 327.466 171.2 328.043 172.759C328.62 174.577 326.023 177.955 326.023 178.995C328.043 193.285 334.104 205.238 341.031 208.096C341.32 208.096 341.32 208.096 341.608 208.356C337.567 200.041 353.73 187.569 353.73 176.396Z" fill="#FFB894"/>
<path d="M360.08 185.231C371.625 153.271 342.763 141.579 371.914 134.563C371.914 134.563 411.744 131.186 376.82 188.349C373.357 188.868 366.141 189.388 360.08 185.231Z" fill="#5B2E1A"/>
<path d="M357.194 153.531C347.669 158.208 326.6 149.893 332.95 140.28C339.299 130.666 344.206 123.65 360.369 124.43C379.129 125.209 381.727 131.705 377.109 141.839C372.491 152.232 369.893 147.295 357.194 153.531Z" fill="#6D3C23"/>
<path d="M326.023 178.995C326.023 178.995 356.328 201.6 369.028 171.2L383.459 173.538C383.459 173.538 372.78 212.773 346.515 211.214C342.186 210.435 330.063 205.498 327.754 201.86C321.116 192.246 326.023 178.995 326.023 178.995Z" fill="#6D3C23"/>
<path d="M369.028 170.94C364.121 182.892 356.617 186.53 349.112 186.79C349.978 189.648 350.267 192.766 350.267 196.144C350.267 201.34 349.112 206.537 347.381 210.954C372.78 211.994 383.459 173.538 383.459 173.538L369.028 170.94Z" fill="#5B2E1A"/>
<path d="M331.218 165.484C325.734 163.925 324.579 164.704 324.579 164.704V166.783L331.218 169.121V165.484Z" fill="#6D3C23"/>
<path d="M334.681 166.523V170.42L353.153 177.176L354.308 174.838C345.36 170.42 339.011 168.082 334.681 166.523Z" fill="#6D3C23"/>
<path d="M364.41 176.396C364.987 180.814 360.658 183.412 365.564 185.491C371.048 188.089 377.975 176.396 372.203 172.499C368.162 169.381 364.121 172.499 364.41 176.396Z" fill="#F9A580"/>
<path d="M339.011 174.838L343.917 176.916C344.206 176.916 342.185 183.672 339.011 174.838Z" fill="#8C6B5A"/>
<path d="M328.62 171.2L332.084 172.499C332.084 172.499 330.929 179.255 328.62 171.2Z" fill="#8C6B5A"/>
<path d="M329.486 186.01L341.608 190.687C341.32 190.947 332.661 200.301 329.486 186.01Z" fill="#442213"/>
<path d="M331.795 187.309C332.084 188.349 332.372 189.128 332.661 189.908L338.722 192.246C339.876 191.727 340.454 190.687 340.454 190.687L331.795 187.309Z" fill="#FFDECF"/>
<path d="M333.527 167.302C333.527 167.302 329.197 178.475 327.754 185.491C328.331 186.01 329.775 186.53 330.64 186.53C333.238 186.27 335.836 183.672 335.836 183.672L333.527 167.302Z" fill="#FFB894"/>
<path d="M350.267 155.09C350.267 155.09 354.885 148.594 365.564 141.579C376.243 134.563 382.882 136.122 382.882 136.122C382.882 136.122 366.141 156.909 367.873 165.224C368.162 165.483 367.007 153.531 350.267 155.09Z" fill="#5B2E1A"/>
<path d="M370.182 146.516C365.564 140.799 358.348 141.319 363.544 136.382C368.739 131.445 380.861 136.122 380.861 136.122L370.182 146.516Z" fill="#5B2E1A"/>
<path d="M385.479 379.326C385.479 379.326 373.068 215.371 398.179 210.435L407.126 214.332C407.126 214.332 382.593 220.568 390.963 378.027L385.479 379.326Z" fill="#D67B5F"/>
<path d="M379.707 354.122V403.75C379.707 405.05 380.284 406.089 381.438 406.868L388.943 412.844C390.674 414.144 392.983 414.403 394.715 413.364L454.46 382.964C456.769 381.665 458.213 379.586 457.924 377.247C456.769 365.555 453.306 331.257 446.956 325.021C438.875 317.226 379.707 354.122 379.707 354.122Z" fill="#603929"/>
<path d="M379.707 354.122V404.01C379.707 405.05 380.284 406.089 381.15 406.868L388.943 413.104C389.52 413.364 390.097 413.624 390.674 413.364C391.252 413.104 391.54 412.585 391.54 412.065C393.849 368.413 387.499 354.902 379.707 354.122Z" fill="#754737"/>
<path d="M379.707 354.122C406.549 440.907 473.51 366.594 446.956 323.722C441.184 314.628 379.707 354.122 379.707 354.122Z" fill="#A05C44"/>
<path d="M418.094 345.288C430.505 341.91 441.761 338.532 452.44 338.532C451.574 333.336 449.842 328.399 446.956 323.722C441.184 314.368 379.707 354.122 379.707 354.122C386.056 354.382 395.004 351.524 418.094 345.288Z" fill="#754737"/>
<path d="M348.535 376.208L336.413 371.531L337.567 377.767L349.69 382.444L348.535 376.208Z" fill="#728C87"/>
<path d="M432.236 386.861C432.236 384.263 431.082 382.704 429.639 383.483C428.196 384.263 427.041 386.861 427.041 389.46C427.041 392.058 428.196 393.617 429.639 392.837C431.082 391.798 432.236 389.2 432.236 386.861Z" fill="#AA9774"/>
<path d="M377.109 352.563C366.43 352.563 440.895 297.738 449.554 310.21C456.192 319.824 452.44 328.399 438.297 336.454C425.309 343.989 407.126 342.69 377.109 352.563Z" fill="#FFB894"/>
<path d="M449.554 310.21C447.822 307.872 443.493 307.872 438.009 309.691C439.452 315.667 435.988 322.423 427.618 329.438C416.939 338.272 400.776 340.351 376.532 352.563C376.82 352.563 376.82 352.563 377.109 352.563C407.126 342.43 425.309 343.989 438.586 336.454C452.44 328.659 456.192 319.824 449.554 310.21Z" fill="#F9A580"/>
<path d="M420.403 317.746L421.846 312.549C421.846 312.549 444.07 296.959 456.481 312.549C456.481 312.549 456.769 324.761 451.286 329.178C445.802 333.855 425.309 316.966 420.403 317.746Z" fill="#1D3BAB"/>
<path d="M383.17 347.886C378.263 344.249 370.471 358.279 375.666 361.138C380.572 363.996 383.747 366.074 384.325 356.98C384.325 353.343 386.345 350.225 383.17 347.886Z" fill="#FFB894"/>
<path d="M384.325 363.736C383.459 360.878 382.882 358.28 382.304 358.539C381.438 358.799 380.861 361.398 381.727 364.516C382.593 367.374 384.325 369.452 385.191 369.452C385.768 368.933 385.191 366.854 384.325 363.736Z" fill="#FFB894"/>
<path d="M382.016 364.515C380.572 361.657 379.418 359.059 378.552 359.319C377.686 359.579 377.686 362.697 379.129 365.555C380.572 368.413 383.17 370.492 384.036 369.972C384.613 369.712 383.459 367.633 382.016 364.515Z" fill="#FFB894"/>
<path d="M378.552 363.476C376.82 360.618 375.377 358.28 374.511 358.54C373.645 359.059 373.934 361.917 375.954 364.776C377.686 367.634 380.572 369.193 381.15 368.673C381.727 368.673 380.284 366.335 378.552 363.476Z" fill="#FFB894"/>
<path d="M291.965 276.172C291.387 269.157 287.347 257.984 279.842 255.386C270.606 252.008 259.639 257.204 260.505 267.078C261.37 277.212 268.297 286.306 277.245 286.306C284.749 286.566 292.542 283.188 291.965 276.172Z" fill="#1D3BAB"/>
<path d="M253.289 212.253C253.866 213.812 255.887 210.694 256.464 213.033C260.216 229.402 294.562 267.078 286.769 277.991C281.574 285.266 269.452 283.448 260.793 271.755C252.423 260.322 255.309 234.599 253.289 212.253Z" fill="#FFB894"/>
<path d="M257.907 212.253C257.33 209.915 255.309 213.033 254.732 211.474C254.732 212.253 254.732 213.033 255.021 213.812C255.598 213.552 256.175 213.552 256.464 214.592C259.061 230.961 283.595 273.054 271.184 281.369C280.131 285.526 285.615 279.81 287.058 277.731C294.562 266.558 261.659 228.623 257.907 212.253Z" fill="#F9A580"/>
<path d="M257.907 223.426C249.248 217.71 241.167 205.757 246.939 202.12C252.712 198.222 261.659 207.057 258.196 214.332C256.752 216.93 257.907 223.426 257.907 223.426Z" fill="#FFB894"/>
<path d="M243.764 187.569L258.196 193.286L271.472 220.568L268.875 222.387L241.167 189.128L243.764 187.569Z" fill="#AA9083"/>
<path d="M240.878 189.128L255.309 195.104L268.586 222.127L253.289 215.112L240.878 189.128Z" fill="#CCBAB0"/>
<path d="M246.073 200.041C256.464 204.718 261.659 205.757 268.586 222.387L253 215.112L246.073 200.041Z" fill="#BCA499"/>
<path d="M246.939 202.12C249.248 201.86 259.639 207.576 260.216 209.655C260.793 211.474 258.196 212.773 248.96 207.317C243.187 204.199 245.785 202.38 246.939 202.12Z" fill="#FFB894"/>
<path d="M248.671 207.576C250.691 207.317 258.484 212.253 259.062 214.072C259.35 215.631 257.33 216.67 250.114 212.253C245.785 209.395 247.805 207.576 248.671 207.576Z" fill="#FFB894"/>
<path d="M250.114 212.773C251.557 212.513 258.196 216.151 258.484 217.19C258.773 218.229 257.041 219.009 251.269 215.891C247.805 214.072 249.537 213.033 250.114 212.773Z" fill="#FFB894"/>
<path d="M225.331 458.053C224.465 456.494 213.497 440.645 207.148 436.228C207.148 436.228 218.981 438.306 226.197 446.361C233.124 454.156 225.331 458.053 225.331 458.053Z" fill="#6D3C23"/>
<path d="M203.107 453.376C201.375 452.597 182.037 445.581 173.956 445.581C173.956 445.581 184.924 440.904 195.891 443.503C206.859 446.361 203.107 453.376 203.107 453.376Z" fill="#6D3C23"/>
<path d="M217.249 453.376C215.806 452.337 198.2 442.204 190.407 440.645C190.407 440.645 201.952 438.046 212.343 442.464C222.445 447.14 217.249 453.376 217.249 453.376Z" fill="#6D3C23"/>
<path d="M267.362 566.117L180.594 527.949L177.997 521.193L294.024 494.69L295.755 498.847L267.362 566.117Z" fill="#AA9083"/>
<path d="M265.084 562.13L177.419 520.933L201.375 449.739L294.601 494.95L265.084 562.13Z" fill="#DBC8BF"/>
<path d="M264.514 563.269L177.419 520.933L294.601 494.95L264.514 563.269Z" fill="#C9B0A6"/>
<path d="M262.806 554.726L187.81 518.595L210.323 462.211L287.674 499.627L262.806 554.726Z" fill="#99AFFF"/>
<path d="M206.859 527.689C206.859 527.689 218.981 514.437 237.165 516.776C255.348 519.114 257.08 516.776 257.08 516.776L261.409 511.059C261.409 511.059 261.986 491.832 265.45 488.714L287.385 499.627L262.806 554.726L206.859 527.689Z" fill="#7290FF"/>
<path d="M223.311 492.611C223.311 492.611 227.351 497.808 228.794 498.328C231.103 499.367 233.412 496.249 233.701 495.469C233.412 498.847 232.258 501.705 228.217 501.446C225.331 501.186 220.136 499.627 223.311 492.611Z" fill="#5E311D"/>
<path d="M276.418 556.011C276.418 556.011 274.109 550.814 273.531 546.916C272.954 541.46 268.047 536.523 270.356 534.964C272.665 533.405 276.995 543.539 278.438 542.759C279.881 541.72 282.19 533.925 284.788 533.925C284.499 550.034 281.901 554.711 276.418 556.011Z" fill="#FFB894"/>
<path d="M269.202 559.388L271.8 552.633L283.633 551.593L282.19 563.026L269.202 559.388Z" fill="#D8CFA9"/>
<path d="M250.73 585.372L266.316 556.01L288.54 561.207C288.54 561.207 271.511 614.993 264.295 617.331C257.08 619.67 250.73 585.372 250.73 585.372Z" fill="#49463A"/>
<path d="M250.73 585.372L266.316 556.01L288.54 561.207C288.54 561.207 271.511 614.993 264.295 617.331C257.08 619.67 250.73 585.372 250.73 585.372Z" fill="#3A372C"/>
<path d="M222.733 450.518C222.733 450.518 233.413 467.148 231.392 477.281C229.372 487.674 227.929 507.422 221.579 512.099C209.745 522.232 188.676 501.446 188.676 501.446C188.676 501.446 175.976 427.913 222.733 450.518Z" fill="#FFB894"/>
<path d="M208.302 446.101C186.367 444.802 186.367 476.502 187.81 492.351C188.098 483.257 190.696 453.636 208.302 446.101Z" fill="#F9A580"/>
<path d="M187.81 495.469C188.098 499.107 188.676 501.446 188.676 501.446C188.676 501.446 209.168 521.453 221.002 512.359C207.725 509.76 190.696 497.548 187.81 495.469Z" fill="#F9A580"/>
<path d="M173.667 888.077C173.667 888.077 200.798 863.653 210.611 864.173C220.424 864.692 209.168 876.385 204.261 879.503C199.355 882.621 182.037 890.935 182.037 890.935L173.667 888.077Z" fill="#E0D6A9"/>
<path d="M181.749 890.935C181.749 890.935 185.501 889.117 190.119 886.778C187.81 884.699 183.48 883.66 178.862 883.4C175.687 885.998 173.667 888.077 173.667 888.077L181.749 890.935Z" fill="#B7AD84"/>
<path d="M230.815 915.879C230.815 915.879 266.893 904.966 279.592 910.163C285.076 912.242 281.324 919.257 277.572 919.777C258.523 922.115 236.01 920.816 236.01 920.816L230.815 915.879Z" fill="#E0D6A9"/>
<path d="M230.815 915.879C230.815 915.879 234.856 914.58 240.917 913.281C242.937 914.58 244.958 916.139 246.689 917.958C247.844 919.257 248.998 920.296 249.864 921.336C241.783 921.336 236.299 921.076 236.299 921.076L230.815 915.879Z" fill="#B7AD84"/>
<path d="M158.659 656.306C146.536 719.965 167.895 872.227 167.029 886.258C167.029 886.258 173.09 896.652 185.501 894.053C185.501 894.053 175.687 705.674 200.221 716.068C228.506 728.02 227.063 896.132 226.774 918.218C233.701 922.635 240.628 921.076 244.669 920.556C246.689 897.431 251.307 722.564 249.287 689.305C246.978 637.598 169.049 641.236 158.659 656.306Z" fill="#B24D40"/>
<path d="M197.912 715.808C197.046 715.288 196.18 714.769 195.314 714.249C170.781 703.856 180.594 892.235 180.594 892.235C177.708 892.754 175.399 892.754 173.379 892.235C176.265 894.053 180.306 895.093 185.501 894.053C185.501 894.053 176.265 718.147 197.912 715.808Z" fill="#992E25"/>
<path d="M249.287 689.565C248.421 668.258 234.567 656.306 217.827 650.59C232.258 656.826 243.514 668.518 244.38 687.746C246.401 721.005 241.783 895.872 239.762 918.997C236.876 919.257 232.547 920.037 227.929 918.997C234.567 922.635 240.917 921.076 244.669 920.816C246.689 897.431 251.596 722.823 249.287 689.565Z" fill="#992E25"/>
<path d="M249.287 689.565C248.998 685.927 248.421 682.549 247.844 679.431C240.051 675.014 230.815 671.116 220.136 667.998C192.139 659.424 165.874 659.944 156.927 667.998C156.35 672.416 156.061 677.093 155.772 682.029C160.39 690.084 172.513 698.659 188.676 705.414L195.314 686.966L197.623 708.792C199.932 709.572 202.241 710.351 204.55 711.131C221.579 716.327 238.03 718.146 250.441 716.847C249.864 704.895 249.864 695.021 249.287 689.565Z" fill="#992E25"/>
<path d="M247.266 618.111C247.844 587.97 247.555 571.86 244.669 556.53C239.762 530.027 177.131 505.863 150.289 520.933C131.817 531.326 151.154 590.308 152.309 600.702C153.175 606.938 148.557 661.243 145.671 674.494C144.227 681.77 159.813 692.683 181.749 699.179L188.098 675.274L190.985 701.517C213.786 706.714 239.474 709.832 255.059 691.643C263.141 682.809 246.978 652.409 247.266 618.111Z" fill="#49463A"/>
<path d="M247.266 618.111C247.844 587.97 247.555 571.86 244.669 556.53C243.226 548.995 237.165 541.46 228.506 535.224C229.66 538.082 230.526 540.94 230.815 543.798C233.701 564.065 233.701 585.632 233.412 625.646C233.124 655.007 239.762 682.549 242.36 701.517C246.978 699.438 251.307 696.32 255.059 691.903C263.141 682.809 246.978 652.409 247.266 618.111Z" fill="#3A372C"/>
<path d="M264.295 617.331C281.324 607.977 257.368 548.216 233.99 538.342C210.322 528.468 234.567 633.701 264.295 617.331Z" fill="#49463A"/>
<path d="M250.73 553.412C261.12 573.419 266.604 602.521 261.698 618.63C262.564 618.37 263.429 618.111 264.007 617.591C279.015 605.899 266.604 574.719 250.73 553.412Z" fill="#3A372C"/>
<path d="M185.212 500.926C185.212 501.965 183.769 519.374 183.769 519.374L211.477 526.649L212.631 502.225L185.212 500.926Z" fill="#F9A580"/>
<path d="M224.177 483.777C219.847 457.534 199.643 447.92 185.212 447.66C171.07 447.4 164.431 466.108 165.586 478.32C167.029 493.391 175.688 501.965 187.233 509.241C201.952 518.595 227.351 504.564 224.177 483.777Z" fill="#6D3C23"/>
<path d="M227.063 488.194C226.197 473.384 216.672 462.99 210.034 457.274C205.416 465.069 202.818 474.943 202.818 485.596C202.818 494.69 204.839 503.005 208.302 510.02C216.095 506.902 220.713 499.367 223.311 491.052C223.599 488.714 227.063 491.052 227.063 488.194Z" fill="#5E311D"/>
<path d="M221.002 499.627C216.384 503.005 209.168 486.635 215.806 484.037C222.733 481.438 229.372 493.91 221.002 499.627Z" fill="#FFB894"/>
<path d="M228.794 451.298C207.436 438.826 191.85 443.763 184.346 446.881C168.76 453.376 167.317 462.471 167.606 471.305C167.895 480.139 195.603 478.061 212.631 478.061C228.506 478.061 238.319 457.014 228.794 451.298Z" fill="#6D3C23"/>
<path d="M228.795 451.298C227.64 450.518 226.486 449.999 225.331 449.219C214.363 452.857 205.705 464.03 203.684 478.06C206.859 478.06 210.034 478.06 212.632 478.06C228.506 478.06 238.319 457.014 228.795 451.298Z" fill="#5E311D"/>
<path d="M173.956 517.555L177.419 510.8L218.115 521.713L221.29 530.547L173.956 517.555Z" fill="#D8CFA9"/>
<path d="M230.815 478.84L232.258 481.698L230.238 484.037L230.815 478.84Z" fill="#5E311D"/>
<path d="M186.944 537.043C186.944 537.043 178.285 571.6 185.212 594.985C192.139 618.37 186.367 650.33 186.367 650.33C186.367 650.33 193.871 619.929 188.098 598.883C179.728 569.262 186.944 537.043 186.944 537.043Z" fill="#3A372C"/>
<path d="M205.416 460.392C205.416 462.211 205.993 480.919 208.879 487.674C208.879 487.674 199.932 480.399 198.2 470.266C196.469 460.132 205.416 460.392 205.416 460.392Z" fill="#6D3C23"/>
<path d="M201.375 472.864C201.664 474.683 204.261 493.131 208.013 499.627C208.013 499.627 198.2 493.391 195.603 483.257C192.716 473.383 201.375 472.864 201.375 472.864Z" fill="#6D3C23"/>
<path d="M206.282 450.778C206.57 452.597 209.168 471.045 212.92 477.541C212.92 477.541 203.107 471.305 200.509 461.171C197.623 451.298 206.282 450.778 206.282 450.778Z" fill="#6D3C23"/>
<path d="M227.929 586.151C222.445 575.498 221.867 544.838 233.412 540.421C221.29 539.121 216.672 566.404 227.929 586.151Z" fill="#726E5D"/>
<path d="M145.093 561.727C140.764 551.074 143.939 522.232 155.772 519.114C143.939 517.036 136.146 542.239 145.093 561.727Z" fill="#726E5D"/>
<path d="M227.351 665.141L248.421 654.487C248.421 654.487 250.441 663.841 240.628 668.519C229.949 673.715 227.351 665.141 227.351 665.141Z" fill="#6B6755"/>
<path d="M654.805 678.651C654.805 678.651 626.231 697.619 617.284 696.32C608.048 694.761 620.17 685.667 625.077 683.328C629.983 680.989 647.301 675.533 647.301 675.533L654.805 678.651Z" fill="#E0D6A9"/>
<path d="M647.301 675.533C647.301 675.533 643.549 676.832 638.931 678.391C640.951 680.47 644.703 681.769 649.321 682.289C652.784 680.21 654.805 678.651 654.805 678.651L647.301 675.533Z" fill="#B7AD84"/>
<path d="M707.335 704.894C707.335 704.894 695.79 734.255 703.294 738.932C706.469 741.011 715.416 734.255 715.705 731.397C717.436 718.146 714.262 704.894 714.262 704.894H707.335Z" fill="#E0D6A9"/>
<path d="M707.335 704.894C707.335 704.894 705.891 708.272 704.448 712.949C706.469 713.209 708.489 713.469 710.798 713.469C712.53 713.469 713.973 713.469 715.416 713.209C714.839 708.272 713.973 704.894 713.973 704.894H707.335Z" fill="#B7AD84"/>
<path d="M608.625 352.041C593.905 348.663 628.54 276.949 647.878 277.469C677.029 278.508 634.313 346.065 620.17 354.12L608.625 352.041Z" fill="#F2E8BB"/>
<path d="M656.248 281.886C657.402 299.814 622.479 337.49 605.45 348.663C606.027 350.482 606.893 351.781 608.625 352.041L618.438 358.277C630.272 351.521 664.907 296.956 656.248 281.886Z" fill="#DDD3A8"/>
<path d="M632.869 419.338C620.459 488.973 641.239 655.526 640.662 670.856C640.662 670.856 646.723 682.029 659.134 679.431C659.134 679.431 658.268 495.469 664.907 497.547C692.903 506.642 700.985 681.509 700.408 705.934C707.335 710.87 714.262 709.052 718.302 708.532C720.323 683.328 725.807 492.091 723.786 455.714C721.477 399.071 643.26 402.968 632.869 419.338Z" fill="#445568"/>
<path d="M669.236 457.273C690.306 466.627 711.375 469.226 724.075 465.068C724.075 461.431 723.786 458.313 723.786 455.714C721.477 398.811 643.26 402.708 632.869 419.338C632.292 421.936 632.004 424.534 631.715 427.392C637.487 437.786 651.053 449.218 669.236 457.273Z" fill="#30404F"/>
<path d="M657.98 503.524C653.362 515.216 650.764 654.227 650.475 679.171C652.784 679.95 655.671 680.21 659.134 679.431C659.134 679.431 661.443 545.357 664.329 498.067C660.577 497.288 658.846 501.705 657.98 503.524Z" fill="#30404F"/>
<path d="M723.786 455.714C721.766 406.086 661.732 402.968 639.508 413.881C665.484 407.125 713.107 414.661 715.127 458.832C717.148 494.17 711.952 676.053 709.932 709.311C713.396 709.571 716.282 708.792 718.302 708.792C720.323 683.588 725.807 492.351 723.786 455.714Z" fill="#30404F"/>
<path d="M632.87 424.015C634.313 344.766 617.861 293.059 641.24 279.807C669.814 263.698 724.075 291.76 729.27 320.081C732.156 336.191 726.095 352.301 725.807 384.26C725.229 420.637 726.095 451.817 718.302 455.454C692.615 466.367 632.581 440.644 632.87 424.015Z" fill="#F2E8BB"/>
<path d="M662.598 291.5C661.155 294.618 655.671 372.828 660.289 414.401L666.061 425.314L670.679 418.818C670.679 418.818 661.443 322.16 667.504 294.098L662.598 291.5Z" fill="#DDD3A8"/>
<path d="M729.27 319.822C726.672 306.57 698.387 317.743 706.18 369.45C711.664 405.567 713.396 446.88 705.603 450.258C690.017 457.273 660.866 446.62 640.951 436.227C658.268 450.518 698.387 463.769 718.014 454.935C725.807 451.557 724.941 420.117 725.518 383.741C726.095 352.041 732.156 335.931 729.27 319.822Z" fill="#DDD3A8"/>
<path d="M726.095 392.835C711.664 397.772 693.769 317.483 711.953 306.051C734.754 292.02 745.144 376.985 738.506 392.055L726.095 392.835Z" fill="#F2E8BB"/>
<path d="M723.209 307.609C734.177 327.097 737.64 376.725 732.156 387.638L718.302 388.158C720.611 391.795 723.209 393.614 725.807 392.835L739.083 392.315C744.567 380.363 738.218 321.381 723.209 307.609Z" fill="#CEC49D"/>
<path d="M612.377 325.538C612.377 321.381 608.625 319.302 604.007 319.562C599.389 319.822 595.637 323.979 595.925 328.136C595.925 332.294 599.677 334.632 604.584 334.372C608.913 334.113 612.377 329.695 612.377 325.538Z" fill="#CEC393"/>
<path d="M601.121 315.664C598.812 321.9 594.771 347.624 602.275 355.938C608.914 363.214 618.15 360.356 619.304 351.002C620.17 343.466 608.336 326.837 605.739 316.184C605.45 313.845 601.121 315.664 601.121 315.664Z" fill="#EEA672"/>
<path d="M601.121 328.396C601.698 322.68 602.852 318.003 603.718 315.664C603.718 315.664 604.296 315.404 605.161 315.144C603.718 314.365 601.121 315.664 601.121 315.664C600.255 318.003 599.389 322.68 598.523 328.396H601.121Z" fill="#FFC194"/>
<path d="M692.326 289.421L693.192 255.123L668.947 261.879L661.155 289.421C661.155 289.421 670.679 299.035 692.326 289.421Z" fill="#EEA672"/>
<path d="M665.484 294.098L670.679 291.24L674.143 289.941L679.338 294.878L665.484 294.098Z" fill="#BAAE7B"/>
<path d="M664.33 292.799L662.598 288.382L662.021 284.744L657.691 289.421L664.33 292.799Z" fill="#BAAE7B"/>
<path d="M674.143 289.941L678.472 299.035L697.233 286.303L692.615 279.548L674.143 289.941Z" fill="#E5D8A3"/>
<path d="M662.598 291.5C661.155 294.618 653.362 371.788 656.825 413.361L662.309 424.274L667.216 417.778C667.216 417.778 660.866 322.16 667.793 294.358L662.598 291.5Z" fill="#5B443B"/>
<path d="M666.35 298.515L670.102 290.98L661.443 287.862L662.021 296.696L666.35 298.515Z" fill="#5B443B"/>
<path opacity="0.3" d="M698.099 297.476C703.294 297.476 709.066 296.696 713.396 295.917C709.644 291.76 698.387 285.004 695.79 283.965L692.903 279.807L693.481 259.8C683.379 260.32 674.431 262.918 668.082 266.296L665.195 276.429C663.175 276.17 661.155 276.17 659.134 276.17C658.846 276.949 658.557 277.729 658.846 278.508C659.134 282.406 664.33 287.083 672.122 290.98C672.988 290.72 673.566 290.46 674.431 289.941C675.009 291.5 675.874 293.319 676.74 294.878C681.936 297.216 690.883 297.216 698.099 297.476Z" fill="#995E33"/>
<path d="M681.07 360.615C684.245 357.497 683.667 353.34 683.09 352.561C682.513 352.041 679.338 353.86 676.163 356.978C672.988 360.096 670.968 362.954 671.545 363.473C672.411 364.253 677.895 363.733 681.07 360.615Z" fill="#CEC393"/>
<path d="M667.216 351.002C675.586 365.033 712.53 404.267 724.941 402.449C737.352 400.63 741.104 393.874 739.083 390.236C731.868 376.465 687.997 365.292 670.391 348.403C668.948 347.364 667.216 351.002 667.216 351.002Z" fill="#FFC194"/>
<path d="M668.082 290.98L674.143 289.941L674.72 291.5L668.082 293.578V290.98Z" fill="#5B443B"/>
<path d="M663.175 288.641C663.175 288.641 662.021 284.484 662.021 284.744C662.021 285.004 660 287.082 660 287.082L661.732 289.421L663.175 288.641Z" fill="#5B443B"/>
<path d="M655.094 263.178C649.61 230.179 685.399 218.227 666.927 210.172C666.927 210.172 628.252 210.172 652.785 262.918C654.805 263.178 650.764 267.075 655.094 263.178Z" fill="#5B2E1A"/>
<path d="M697.233 256.682C699.542 237.194 696.367 220.305 685.399 213.29C674.431 206.274 649.321 210.432 645.569 236.675C644.703 241.871 644.415 245.249 644.992 250.186C645.28 251.485 648.455 254.343 649.033 255.902C649.898 257.721 647.589 261.359 647.878 262.658C651.63 276.689 659.134 284.744 666.639 286.563C672.411 288.122 686.842 276.949 687.131 272.272C689.729 249.147 696.367 263.697 697.233 256.682Z" fill="#EEA672"/>
<path d="M684.533 219.266C681.647 213.55 671.257 212.251 661.443 216.408C651.63 220.306 645.569 228.36 648.455 233.817C651.341 239.533 661.732 240.832 671.545 236.675C681.647 232.777 687.419 224.723 684.533 219.266Z" fill="#EDB08E"/>
<path d="M675.009 257.202C683.09 234.336 662.309 216.148 677.029 210.432C664.907 208.873 648.455 215.628 645.28 236.675C644.415 241.871 644.126 245.249 644.703 250.186C644.992 251.485 648.167 254.343 648.744 255.902C649.61 257.721 647.878 261.099 647.589 262.138C647.301 264.737 651.919 277.728 653.939 280.327C657.114 284.484 665.773 287.602 667.505 286.303C677.895 279.807 669.525 273.051 675.009 257.202Z" fill="#FFC194"/>
<path d="M685.111 234.336C685.111 230.959 677.318 222.384 668.082 222.384C658.846 222.384 646.435 226.282 646.435 229.659C646.435 233.037 659.134 237.454 668.659 237.454C677.895 237.714 685.111 237.974 685.111 234.336Z" fill="#EA9D73"/>
<path d="M681.647 264.477C689.44 230.959 654.228 225.502 698.099 213.03C698.099 213.03 718.88 227.061 692.903 268.375C690.594 264.477 687.42 262.398 681.647 264.477Z" fill="black"/>
<path d="M675.874 234.077C666.638 239.793 640.373 234.856 645.568 224.463C650.763 214.069 657.69 207.054 674.431 206.015C693.48 204.975 706.468 216.148 703.293 227.061C699.83 237.974 687.996 226.541 675.874 234.077Z" fill="#340C00"/>
<path d="M650.764 248.887C645.858 246.809 644.703 247.068 644.703 247.068L644.992 248.368L651.053 251.226L650.764 248.887Z" fill="#340C00"/>
<path d="M659.183 251.258L659.471 253.856L673.037 259.832L673.614 258.273C666.976 254.895 662.358 252.817 659.183 251.258Z" fill="#340C00"/>
<path d="M685.111 258.501C685.688 262.658 681.936 264.737 686.265 266.815C691.172 269.154 697.81 258.761 692.326 254.863C688.286 252.005 684.533 255.123 685.111 258.501Z" fill="#FFC194"/>
<path d="M663.681 259.354L674.063 261.438C674.063 261.438 666.754 263.462 663.681 259.354Z" fill="#340C00"/>
<path d="M646.98 251.258L652.441 254.999C652.441 254.999 649.003 256.395 646.98 251.258Z" fill="#340C00"/>
<path d="M653.073 269.934L663.175 275.39C663.175 275.39 662.887 278.768 658.846 276.949C653.939 274.87 653.362 272.272 653.073 269.934Z" fill="#442213"/>
<path d="M655.382 271.752L655.671 272.792L662.309 276.17V275.39L655.382 271.752Z" fill="#FFDECF"/>
<path d="M668.948 235.896C668.948 235.896 673.277 229.4 683.09 221.345C692.904 213.29 700.119 214.07 700.119 214.07C700.119 214.07 685.399 236.415 687.997 244.47C687.997 244.73 685.688 232.778 668.948 235.896Z" fill="#340C00"/>
<path d="M651.342 268.375C651.342 268.375 657.114 273.052 659.423 270.713C661.732 268.375 655.094 260.58 655.094 260.58L651.342 268.375Z" fill="#D5905F"/>
<path d="M654.228 251.745C654.228 251.745 650.187 261.879 649.033 267.855C649.61 268.375 650.764 269.154 651.63 269.154C654.228 269.154 656.825 268.375 657.98 267.075L654.228 251.745Z" fill="#F0AF80"/>
<path d="M651.053 268.115C651.63 262.918 653.65 254.603 654.516 252.005V251.745C654.516 251.745 650.476 261.879 649.321 267.855C649.898 268.375 651.053 269.154 651.919 269.154C652.207 269.154 652.785 269.154 653.073 269.154C652.207 268.894 651.341 268.375 651.053 268.115Z" fill="#FFCBA5"/>
<path d="M671.834 363.733C675.586 362.434 681.647 357.757 683.379 353.08C683.379 353.08 742.835 384 739.949 392.055C737.063 400.11 731.579 407.126 720.323 403.228C708.778 399.331 671.834 363.733 671.834 363.733Z" fill="#F2E8BB"/>
<path d="M733.6 383.481C733.022 388.677 729.847 394.134 721.766 392.575C713.107 390.756 685.688 373.087 671.834 363.733C671.834 363.733 708.778 399.59 720.323 403.228C731.868 407.126 737.063 400.37 739.949 392.055C740.815 390.236 738.795 384.26 733.6 383.481Z" fill="#CEC49D"/>
<path d="M595.637 327.617C599.1 336.711 610.645 336.451 611.511 322.42C611.511 322.42 625.942 351.002 619.304 357.497C614.686 361.915 607.47 364.253 600.832 356.978C594.194 349.702 595.637 327.617 595.637 327.617Z" fill="#DDD3A8"/>
<path d="M601.987 339.309C599.678 338.789 597.657 337.23 596.503 334.632C596.503 334.632 594.482 351.781 600.543 357.497C603.141 359.836 605.739 360.875 608.048 361.135C604.584 356.978 602.852 348.143 601.987 339.309Z" fill="#F2E8BB"/>
<path d="M672.122 348.923C673.277 349.442 671.256 341.388 666.927 338.01C664.041 335.671 661.155 334.372 660.578 335.931C660 337.75 662.309 336.711 664.618 340.348C667.216 343.986 659.134 343.726 672.122 348.923Z" fill="#FFC194"/>
<path d="M655.96 314.885L593.328 282.406L591.308 283.705L667.216 359.056L669.813 358.017L655.96 314.885Z" fill="#AA9083"/>
<path d="M601.986 312.546C601.409 310.467 600.255 308.908 599.1 309.168C597.946 309.428 597.657 311.247 598.234 313.326C598.812 315.404 599.966 316.963 601.121 316.704C601.986 316.704 602.564 314.625 601.986 312.546Z" fill="#EEA672"/>
<path d="M653.65 316.184L591.019 283.445L604.584 326.577L667.504 359.057L653.65 316.184Z" fill="#CCBAB0"/>
<path d="M653.65 316.184L591.019 283.445L667.504 359.057L653.65 316.184Z" fill="#DBC8BF"/>
<path d="M651.919 339.829C651.919 341.388 652.207 343.207 653.073 345.025L666.35 358.277C666.639 358.277 666.927 358.537 667.216 358.537L659.134 333.593C655.094 333.073 651.919 335.412 651.919 339.829Z" fill="#CCBAB0"/>
<path d="M670.968 356.198C666.638 350.482 662.309 350.482 662.309 350.482L664.33 342.167C664.33 342.167 670.391 341.128 675.009 352.82L670.968 356.198Z" fill="#FFC194"/>
<path d="M668.948 458.572L656.537 453.636L656.248 458.832L668.37 463.769L668.948 458.572Z" fill="#A09A8A"/>
<path d="M654.805 339.569C655.671 338.53 660 341.388 661.732 341.388C663.464 341.128 669.236 340.868 669.236 340.868C670.679 342.427 671.834 345.025 672.7 348.923C672.7 348.923 663.464 344.506 661.732 344.506C660 344.246 653.362 341.907 654.805 339.569Z" fill="#FFC194"/>
<path d="M657.98 344.246C658.557 343.466 660.866 344.246 662.309 343.986C663.752 343.726 666.061 344.506 666.061 344.506L666.35 346.584C666.35 346.584 663.175 347.364 661.732 347.104C660.866 347.364 657.114 346.065 657.98 344.246Z" fill="#FFC194"/>
<path d="M659.134 347.364C659.711 346.584 661.443 347.364 662.886 347.104C664.329 346.844 666.638 347.624 666.638 347.624L666.927 349.702C666.927 349.702 663.752 350.482 662.309 350.222C661.443 350.222 658.268 348.923 659.134 347.364Z" fill="#FFC194"/>
<path d="M599.1 310.208C600.543 309.168 606.893 310.987 606.316 312.286C605.739 313.586 599.966 312.286 599.1 312.027V310.208Z" fill="#FFC194"/>
<path d="M599.678 312.027C600.543 310.987 603.718 313.585 603.43 314.885C603.141 316.184 599.966 314.105 599.678 313.585V312.027Z" fill="#FFC194"/>
<path d="M599.678 314.105C600.543 313.326 603.43 315.664 602.852 316.704C602.564 317.743 599.678 315.924 599.389 315.404L599.678 314.105Z" fill="#FFC194"/>
<path d="M687.997 362.694C687.997 361.395 687.131 360.615 685.977 360.615C684.822 360.615 683.956 361.655 683.956 362.694C683.956 363.993 684.822 364.773 685.977 364.773C687.131 364.773 687.997 363.993 687.997 362.694Z" fill="#CEC49D"/>
<path d="M684.822 373.087L692.326 362.954L687.42 374.646L684.822 373.087Z" fill="#CEC49D"/>
<path d="M679.338 338.529L696.367 343.206L695.212 353.86L679.049 347.883L679.338 338.529Z" fill="#CEC49D"/>
<path d="M679.049 335.671L695.79 342.167L694.635 353.08L678.472 346.584L679.049 335.671Z" fill="#FFF6D2"/>
<path d="M153.463 673.195L153.175 667.999C159.236 667.739 164.72 667.219 169.915 666.18L171.07 671.376C165.586 672.416 159.813 672.935 153.463 673.195Z" fill="#E2E7FF"/>
<path d="M119.694 670.597C109.015 668.778 98.0475 666.18 87.0798 662.802L89.1002 657.865C99.7793 661.243 110.458 663.841 120.849 665.66L119.694 670.597ZM56.197 650.85C45.8065 646.173 36.2818 640.716 27.6231 635L31.0866 630.843C39.4567 636.299 48.9813 641.496 59.0832 646.173L56.197 650.85ZM2.51274 614.473C-5.85738 605.639 -11.6299 596.804 -14.5161 587.97L-9.03226 586.411C-6.43463 594.466 -0.950762 602.781 6.84211 611.095L2.51274 614.473ZM-20 557.829C-20 556.27 -20 554.971 -20 553.412C-20 544.578 -18.8455 535.744 -16.8251 527.429L-11.3413 528.728C-13.3616 536.783 -14.5161 545.098 -14.5161 553.412C-14.5161 554.711 -14.5161 556.27 -14.5161 557.57L-20 557.829ZM1.06961 501.705L-3.83701 499.107C1.93549 490.273 9.43973 482.218 18.0985 475.722L21.8506 479.62C13.4805 485.856 6.55348 493.391 1.06961 501.705Z" fill="#E2E7FF"/>
<path d="M49.27 464.549L46.961 459.613C52.4449 457.534 57.9287 455.975 63.7012 454.676L65.1444 459.613C59.6605 461.172 54.4652 462.731 49.27 464.549Z" fill="#E2E7FF"/>
<path d="M1007.1 391.595L1004.77 386.611C1015.05 382.884 1025.11 378.65 1035.04 373.32L1038.18 378.057C1027.98 383.469 1017.48 388.121 1007.1 391.595ZM973.905 400.655C962.742 402.945 951.167 404.221 939.551 404.655L938.933 399.428C950.178 398.824 961.484 397.63 972.378 395.423L973.905 400.655ZM904.62 404.27C893.294 403.189 881.493 401.684 869.92 399.254L870.852 394.121C882.322 396.298 893.586 397.968 904.912 399.049L904.62 404.27ZM836.13 390.537C825.322 387.017 814.039 383.072 803.19 378.709L805.404 373.753C816.253 378.116 826.999 382.226 837.704 385.493L836.13 390.537ZM771.099 363.769C760.849 358.652 751.034 353.116 740.538 346.649L743.599 342.288C753.724 348.584 763.807 354.037 773.685 358.984L771.099 363.769Z" fill="#E2E7FF"/>
<path d="M709.784 337.461C709.784 345.516 716.999 352.271 726.235 352.271C735.183 352.271 742.687 345.776 742.687 337.461C742.687 329.406 735.471 322.651 726.235 322.651C716.999 322.651 709.784 329.406 709.784 337.461Z" fill="#E2E7FF"/>
<path d="M714.402 337.461C714.402 343.177 719.597 347.854 725.947 347.854C732.297 347.854 737.492 343.177 737.492 337.461C737.492 331.745 732.297 327.068 725.947 327.068C719.597 327.068 714.402 331.745 714.402 337.461Z" fill="#FFC107"/>
<path d="M132.105 671.376C132.105 679.431 139.321 686.187 148.557 686.187C157.504 686.187 165.008 679.691 165.008 671.376C165.008 663.322 157.793 656.566 148.557 656.566C139.321 656.566 132.105 663.062 132.105 671.376Z" fill="#E2E7FF"/>
<path d="M136.723 671.377C136.723 677.093 141.918 681.77 148.268 681.77C154.618 681.77 159.813 677.093 159.813 671.377C159.813 665.661 154.618 660.984 148.268 660.984C141.918 660.984 136.723 665.661 136.723 671.377Z" fill="#FFC107"/>
<path d="M86.7911 466.888C95.8771 466.888 103.243 460.257 103.243 452.077C103.243 443.898 95.8771 437.267 86.7911 437.267C77.7052 437.267 70.3395 443.898 70.3395 452.077C70.3395 460.257 77.7052 466.888 86.7911 466.888Z" fill="#E2E7FF"/>
<path d="M86.7912 462.471C93.1673 462.471 98.3362 457.817 98.3362 452.077C98.3362 446.337 93.1673 441.684 86.7912 441.684C80.4151 441.684 75.2462 446.337 75.2462 452.077C75.2462 457.817 80.4151 462.471 86.7912 462.471Z" fill="#FFC107"/>
<path d="M381.188 370.749C390.274 370.749 397.64 364.118 397.64 355.939C397.64 347.759 390.274 341.128 381.188 341.128C372.102 341.128 364.737 347.759 364.737 355.939C364.737 364.118 372.102 370.749 381.188 370.749Z" fill="#E2E7FF"/>
<path d="M381.189 366.332C387.565 366.332 392.734 361.679 392.734 355.939C392.734 350.199 387.565 345.545 381.189 345.545C374.812 345.545 369.644 350.199 369.644 355.939C369.644 361.679 374.812 366.332 381.189 366.332Z" fill="#FFC107"/>
<path d="M1067.63 356.883L1063.79 352.648C1073.3 346.305 1082.5 339.203 1091.49 331.595L1095.77 335.411C1086.61 343.356 1077.14 350.54 1067.63 356.883Z" fill="#C8D3FF"/>
<path d="M1122.83 311.788L1118.14 308.41C1125.82 300.672 1133.46 292.096 1140.74 283.35L1145.6 286.394C1138.32 295.14 1130.41 303.798 1122.83 311.788Z" fill="#C8D3FF"/>
<path d="M1167.8 259.461L1162.42 256.592C1167.74 249.036 1173.23 241.146 1178.24 232.837L1180.85 228.934L1186.13 231.552L1183.78 235.374C1178.77 243.683 1173.39 251.823 1167.8 259.461Z" fill="#C8D3FF"/>
<path d="M1586.23 107.545C1579.92 98.6012 1572.5 90.5573 1564.49 83.2519L1568.94 79.6516C1577.42 87.3721 1584.94 95.664 1591.71 105.023L1586.23 107.545Z" fill="#C8D3FF"/>
<path d="M1206.64 204.091L1201.25 201.218C1207.94 191.821 1214.83 182.926 1221.56 174.364L1226.67 177.319C1220.05 186.132 1213.43 194.945 1206.64 204.091Z" fill="#C8D3FF"/>
<path d="M1536.87 65.0157C1526.77 59.3763 1515.91 54.8143 1504.56 51.2483L1506.65 46.1003C1518.27 49.5848 1529.87 54.4842 1540.34 60.2923L1536.87 65.0157Z" fill="#C8D3FF"/>
<path d="M1250.73 151.988L1246.03 148.607C1253.95 139.938 1262.07 131.774 1270.14 124.196L1274.67 127.912C1266.5 135.238 1258.38 143.402 1250.73 151.988Z" fill="#C8D3FF"/>
<path d="M1302.36 105.185L1298.35 101.279C1308 93.7444 1317.68 87.0543 1327.57 80.8717L1331.15 85.197C1321.15 91.1258 1311.47 97.8159 1302.36 105.185Z" fill="#C8D3FF"/>
<path d="M1469.23 46.5894C1457.36 45.6719 1445.25 45.6813 1432.86 47.2083L1432.14 41.7175C1444.9 40.3616 1457.54 40.1867 1469.79 41.2754L1469.23 46.5894Z" fill="#C8D3FF"/>
<path d="M1363.14 67.8384L1360.25 62.9396C1371.8 57.6174 1383.39 53.1516 1394.85 49.8838L1396.93 55.0343C1385.57 58.5597 1374.15 62.684 1363.14 67.8384Z" fill="#C8D3FF"/>
<path d="M1609.53 155.793C1627.17 150.391 1635.98 132.575 1629.21 116.001C1622.43 99.427 1602.64 90.3702 1585 95.7723C1567.36 101.174 1558.55 118.99 1565.33 135.564C1572.1 152.138 1591.89 161.195 1609.53 155.793Z" fill="#AABCFF"/>
<path d="M1605.96 147.04C1618.45 143.213 1624.69 130.594 1619.89 118.854C1615.09 107.114 1601.07 100.699 1588.58 104.525C1576.08 108.351 1569.84 120.971 1574.64 132.711C1579.44 144.451 1593.46 150.866 1605.96 147.04Z" fill="#F8FDFF"/>
<path d="M506.602 453.201C513.723 453.694 465.519 507.878 453.468 514.774C441.965 521.67 444.156 510.341 445.799 506.893C446.895 503.444 484.143 452.216 506.602 453.201Z" fill="#B05E30"/>
<path d="M506.602 453.2C505.506 453.2 503.863 453.2 502.768 453.693C498.933 464.037 460.041 507.385 449.633 513.295C447.99 514.281 446.347 515.266 445.251 515.266C445.799 517.729 447.99 518.714 454.016 515.266C465.519 508.37 513.723 453.693 506.602 453.2Z" fill="#924B23"/>
<path d="M478.118 567.972C465.519 632.008 491.812 785.201 487.43 833.474L496.195 832.489C496.195 832.489 504.411 749.243 497.838 715.747C495.099 699.984 512.08 603.931 511.532 591.124C510.437 578.316 478.118 567.972 478.118 567.972Z" fill="#B05E30"/>
<path d="M500.029 758.602C500.029 741.362 499.481 725.599 497.838 716.24C495.099 700.477 512.08 604.423 511.532 591.616C510.984 578.809 478.118 568.465 478.118 568.465C470.449 606.886 478.666 687.177 484.144 754.169L500.029 758.602Z" fill="#924B23"/>
<path d="M505.507 590.631C504.959 656.144 554.806 828.548 556.997 879.284L565.762 878.299C565.762 878.299 562.475 780.275 552.067 745.302C547.138 729.047 551.52 628.067 549.329 614.767C546.042 601.468 505.507 590.631 505.507 590.631Z" fill="#B05E30"/>
<path d="M556.45 768.946C554.806 759.587 553.163 751.213 551.52 745.302C546.59 729.047 550.972 628.067 548.781 614.767C546.042 601.468 505.507 590.631 505.507 590.631C504.959 627.575 521.392 701.955 536.73 768.946H556.45Z" fill="#924B23"/>
<path d="M461.685 707.373C464.971 727.076 489.073 750.72 541.112 745.794C573.978 742.839 564.666 696.536 545.494 572.898C542.207 551.224 480.309 548.761 475.379 556.15C462.232 574.868 461.685 707.373 461.685 707.373Z" fill="#3D4E4F"/>
<path d="M511.532 571.42C520.296 633.978 548.233 690.133 553.163 741.361C571.239 727.076 561.927 677.818 546.042 572.405C544.946 565.017 536.73 560.091 526.87 556.643C528.513 558.613 511.532 568.957 511.532 571.42Z" fill="#2A3A3A"/>
<path d="M549.877 597.035C548.782 589.154 547.138 580.78 546.043 572.406C542.756 550.732 480.858 548.269 475.928 555.658C473.736 558.614 472.093 563.54 470.998 570.436C492.361 600.976 527.966 600.483 549.877 597.035Z" fill="#2A3A3A"/>
<path d="M475.927 570.928C481.404 575.854 502.768 597.527 526.322 591.124C537.825 588.168 544.946 582.75 546.042 575.361C547.137 567.972 536.73 532.014 541.66 523.147C548.233 511.325 551.519 500.488 550.972 490.144C549.876 468.963 534.539 451.23 521.94 447.289C509.341 443.349 475.927 458.619 469.353 489.652C467.162 499.503 478.666 515.758 479.213 527.58C479.761 539.402 468.806 565.017 475.927 570.928Z" fill="#FFC107"/>
<path d="M541.66 523.147C548.233 511.325 553.163 500.489 550.972 490.144C543.851 450.245 532.895 457.634 522.488 485.219C518.106 496.548 532.348 539.895 506.602 522.655C496.742 515.759 526.322 573.884 525.227 582.257C524.679 586.198 523.036 589.646 520.297 592.109C522.488 592.109 524.131 591.617 526.322 591.124C537.825 588.169 544.946 582.75 546.042 575.361C547.138 567.973 536.73 532.014 541.66 523.147Z" fill="#D1A212"/>
<path d="M549.329 491.129C550.424 478.322 540.016 468.963 538.921 467.485C534.539 464.037 528.513 475.367 527.418 487.681C526.322 500.488 530.156 510.833 536.182 511.325C541.66 512.31 548.233 503.936 549.329 491.129Z" fill="#924B23"/>
<path d="M527.419 473.396C534.54 460.589 532.896 449.259 521.941 446.304C510.985 443.348 496.743 452.215 487.431 463.544C472.641 482.262 481.953 487.681 492.909 490.636C503.864 493.099 515.368 494.084 527.419 473.396Z" fill="#B05E30"/>
<path d="M503.315 457.141L504.411 427.586L526.322 419.704L528.513 451.722C527.965 451.722 521.392 461.574 503.315 457.141Z" fill="#924B23"/>
<path d="M536.73 466.007C542.756 461.573 577.265 520.191 578.909 532.998C581.1 546.298 569.596 538.909 566.31 535.954C562.475 532.998 519.201 478.814 536.73 466.007Z" fill="#B05E30"/>
<path d="M535.087 467.977C529.061 475.366 536.182 492.114 544.947 506.891C538.373 493.099 533.443 477.829 535.087 467.977Z" fill="#924B23"/>
<path d="M578.908 532.999C578.36 525.118 559.736 492.608 549.876 479.8C554.258 491.622 575.622 531.029 575.622 535.462C575.622 537.925 575.622 539.403 575.074 540.388C578.36 540.88 579.456 538.91 578.908 532.999Z" fill="#924B23"/>
<path d="M387.188 474.382C397.048 482.755 444.156 499.996 451.825 508.37C459.494 516.744 448.538 517.236 444.704 516.744C440.322 516.251 388.283 483.741 387.188 474.382Z" fill="#B05E30"/>
<path d="M446.895 504.922C432.653 496.056 395.952 481.771 387.188 474.382C387.736 476.352 389.927 478.815 393.213 481.771C406.36 488.667 433.201 498.026 446.895 504.922Z" fill="#924B23"/>
<path d="M415.124 499.504C428.818 508.863 442.512 516.744 444.156 517.237C453.468 520.193 458.398 509.848 456.754 508.863C456.207 508.863 445.251 514.774 444.703 514.774C438.13 511.326 426.627 505.415 415.124 499.504Z" fill="#924B23"/>
<path d="M537.278 593.587C531.252 594.572 560.284 540.388 569.049 532.507C577.265 524.625 579.456 534.969 578.909 537.925C578.909 541.866 544.947 584.228 537.278 593.587Z" fill="#B05E30"/>
<path d="M574.526 528.072C575.622 537.431 547.138 579.793 537.278 593.585C544.947 584.226 578.909 541.864 578.909 537.924C579.456 536.938 578.361 528.564 574.526 528.072Z" fill="#924B23"/>
<path d="M555.902 876.329C554.806 879.777 553.711 904.406 563.57 906.869C575.074 909.824 566.309 875.836 566.309 875.836L555.902 876.329Z" fill="#FFC107"/>
<path d="M487.43 830.519C474.831 834.459 456.755 841.848 461.137 843.818C465.519 845.789 484.691 841.848 493.455 836.43C501.672 830.518 487.43 830.519 487.43 830.519Z" fill="#FFC107"/>
<path d="M535.634 601.96C535.634 601.96 532.895 585.705 540.016 587.183C544.399 588.168 543.851 599.004 543.851 599.004L535.634 601.96Z" fill="#B05E30"/>
<path opacity="0.3" d="M544.399 467.485C543.851 466.5 543.303 465.022 542.208 464.53C538.373 458.619 533.443 453.693 528.513 450.737C527.965 450.245 527.965 449.752 527.418 449.26L526.87 433.497C517.558 435.467 508.793 441.378 506.602 446.797C502.22 463.545 523.035 467.485 544.399 467.485Z" fill="#924B23"/>
<path d="M520.296 377.343C528.513 365.521 539.469 374.387 538.373 387.194C543.303 377.835 546.042 362.073 537.277 356.654C526.87 349.758 515.914 360.102 515.914 376.357L520.296 377.343Z" fill="#60382B"/>
<path d="M519.201 377.344L520.296 377.836C528.513 366.014 539.469 374.881 538.373 387.688C541.66 381.777 543.851 372.91 542.755 366.014C531.252 359.611 519.201 362.566 519.201 377.344Z" fill="#4C2920"/>
<path d="M545.494 404.928C546.59 386.702 533.991 368.969 509.889 371.925C492.36 373.895 479.761 389.165 481.405 405.913C483.048 422.661 503.316 440.886 520.844 439.408C538.921 437.931 544.947 417.242 545.494 404.928Z" fill="#60382B"/>
<path d="M490.717 441.871C492.908 445.812 497.838 449.752 502.22 448.274C510.436 445.812 530.704 435.467 532.895 419.212C537.825 382.268 518.653 371.924 495.647 387.194C486.334 393.598 480.857 401.972 481.404 412.808C481.404 415.271 484.691 416.749 483.048 421.675C480.857 429.064 488.525 438.423 490.717 441.871Z" fill="#B05E30"/>
<path d="M495.647 387.194C494.552 388.18 493.456 388.672 492.36 389.657C501.673 391.628 518.106 392.613 506.603 423.153C504.959 427.586 508.246 430.542 506.603 434.975C504.959 439.408 506.603 444.827 503.864 448.275C513.176 444.827 530.705 438.423 532.896 419.705C536.73 382.269 518.654 372.417 495.647 387.194Z" fill="#924B23"/>
<path d="M489.621 432.512C490.716 434.483 492.907 435.961 494.003 435.961C495.098 435.468 494.003 428.079 494.003 428.079L489.621 432.512Z" fill="#924B23"/>
<path d="M533.99 432.511C528.513 443.348 512.08 439.407 512.627 417.734C512.627 402.956 503.315 395.567 494.551 394.09C487.978 393.105 485.239 394.582 481.952 401.971C481.952 401.971 483.048 376.849 508.245 375.864C530.156 374.879 547.685 404.434 533.99 432.511Z" fill="#60382B"/>
<path d="M546.59 400.986C543.304 373.894 512.628 393.598 512.628 417.242C512.628 435.96 518.106 432.512 521.94 439.408C523.036 439.408 524.679 438.915 525.775 438.423C535.635 438.423 548.234 414.286 546.59 400.986Z" fill="#4C2920"/>
<path d="M487.429 412.316C482.5 410.346 481.404 410.839 481.404 410.839V411.331L486.882 413.302L487.429 412.316Z" fill="#340C00"/>
<path d="M494.003 415.272V416.257L505.506 421.675H506.602C500.028 418.227 497.29 416.257 494.003 415.272Z" fill="#340C00"/>
<path d="M502.22 427.093L496.743 424.63C497.29 425.123 498.934 417.734 502.22 427.093Z" fill="#513D34"/>
<path d="M489.074 421.675L485.239 419.704C485.239 419.704 485.239 412.316 489.074 421.675Z" fill="#513D34"/>
<path d="M488.526 433.989L498.934 438.423C498.934 438.423 498.386 443.349 495.099 442.364C492.36 441.378 489.074 435.96 488.526 433.989Z" fill="#442213"/>
<path d="M490.169 435.468C490.717 437.438 493.456 440.886 495.647 441.379C496.742 441.871 497.29 440.394 497.838 438.916L490.169 435.468Z" fill="#FFDECF"/>
<path d="M514.818 428.078C515.913 424.137 518.105 420.689 521.939 420.689C530.156 421.182 524.13 433.989 520.296 435.959C517.009 438.422 514.27 431.526 514.818 428.078Z" fill="#B05E30"/>
<path d="M492.908 432.512C490.169 433.497 488.526 432.512 487.43 431.527C486.335 430.542 490.717 425.616 491.812 423.646C493.456 421.676 492.908 432.512 492.908 432.512Z" fill="#D57742"/>
<path d="M494.003 432.512C491.265 433.497 489.621 432.512 488.526 431.527C487.43 430.541 491.265 424.63 492.908 422.66C494.003 421.182 494.003 432.512 494.003 432.512Z" fill="#924B23"/>
<path d="M497.29 422.168L505.506 426.601L498.385 421.183L497.29 422.168Z" fill="#513D34"/>
<path d="M489.074 416.749L483.048 416.256L488.526 417.734L489.074 416.749Z" fill="#513D34"/>
<path d="M496.195 483.247L489.621 489.651L495.099 491.128L496.195 483.247Z" fill="#924B23"/>
<path d="M535.087 598.511C535.087 599.496 535.635 602.451 535.087 604.914C534.539 607.87 533.444 610.825 534.539 610.825C535.635 610.825 537.278 608.362 537.826 604.914C538.374 601.466 537.826 598.018 537.826 598.018L535.087 598.511Z" fill="#B05E30"/>
<path d="M538.921 596.542C538.921 597.528 538.921 600.483 538.373 602.946C537.825 605.901 536.182 608.364 537.277 608.857C537.825 608.857 540.016 606.394 541.112 603.439C542.207 599.991 541.66 596.542 541.66 596.542H538.921Z" fill="#B05E30"/>
<path d="M541.66 595.065C541.66 596.05 542.208 598.513 541.66 600.483C541.112 602.946 540.565 605.409 541.112 605.902C541.66 605.902 543.304 603.439 543.851 600.976C544.399 598.02 543.303 594.572 543.303 594.572L541.66 595.065Z" fill="#B05E30"/>
<path d="M528.513 599.498C529.061 600.483 531.799 599.005 532.347 597.527C532.895 596.049 536.182 593.587 536.729 593.587V587.676C536.729 587.676 532.347 592.109 532.347 593.587C532.347 594.572 528.513 598.02 528.513 599.498Z" fill="#B05E30"/>
<path d="M385.544 445.319L393.213 451.23L392.666 472.411L390.474 472.904L382.806 446.304L385.544 445.319Z" fill="#96695E"/>
<path d="M382.806 445.812L391.022 451.723L390.475 472.904L384.449 468.471L382.806 445.812Z" fill="#BC8A7A"/>
<path d="M390.474 477.829C388.831 481.77 381.162 468.47 382.805 466.5C384.449 464.529 388.831 466.007 389.379 467.485C390.474 468.47 391.57 474.873 390.474 477.829Z" fill="#924B23"/>
<path d="M387.736 467.485C388.284 465.515 390.475 462.067 391.022 462.56C391.57 463.052 395.405 466.008 394.309 466.5C393.761 466.993 390.475 466.008 390.475 466.008C390.475 466.008 389.379 469.456 389.379 469.948L387.736 467.485Z" fill="#924B23"/>
<path d="M384.997 466.5C384.997 466.008 386.64 460.589 387.188 460.097C387.736 459.604 392.118 454.186 392.666 454.186C393.213 454.678 392.118 459.112 389.927 461.082C387.736 463.052 387.736 467.485 387.736 467.485L384.997 466.5Z" fill="#924B23"/>
<path d="M382.805 467.486C382.257 464.53 382.805 461.575 382.805 460.097C382.805 457.141 382.805 452.215 383.353 451.723C384.448 451.723 385.544 457.634 384.996 460.097C384.996 461.082 384.996 465.515 384.996 465.515L382.805 467.486Z" fill="#924B23"/>
</svg>
