<svg width="131" height="124" viewBox="0 0 131 124" fill="none" xmlns="http://www.w3.org/2000/svg">
<path d="M120.031 33.9972V104.767H0.000183105V67.9944L72.8513 0L120.031 33.9972Z" fill="white"/>
<path d="M45.3829 82.3335C44.295 82.3335 43.2398 82.1836 42.2174 81.8837C41.2082 81.5702 40.3955 81.1682 39.7794 80.6775L40.8608 78.1833C41.4506 78.6331 42.1519 78.9943 42.9646 79.2669C43.7772 79.5395 44.5899 79.6758 45.4026 79.6758C46.307 79.6758 46.9755 79.5395 47.4081 79.2669C47.8406 78.9807 48.0569 78.6058 48.0569 78.1424C48.0569 77.8017 47.9258 77.5223 47.6637 77.3042C47.4146 77.0725 47.0869 76.8885 46.6806 76.7523C46.2874 76.616 45.75 76.466 45.0684 76.3025C44.0197 76.0435 43.1612 75.7846 42.4927 75.5256C41.8242 75.2667 41.2475 74.851 40.7625 74.2785C40.2906 73.7061 40.0547 72.9428 40.0547 71.9888C40.0547 71.1574 40.271 70.4078 40.7035 69.7399C41.1361 69.0585 41.7849 68.5201 42.65 68.1249C43.5282 67.7296 44.5965 67.532 45.8548 67.532C46.733 67.532 47.5916 67.641 48.4305 67.8591C49.2694 68.0772 50.0034 68.3906 50.6326 68.7995L49.6495 71.3141C48.378 70.5645 47.1066 70.1897 45.8352 70.1897C44.9438 70.1897 44.2819 70.3396 43.8493 70.6395C43.4299 70.9393 43.2202 71.3346 43.2202 71.8252C43.2202 72.3159 43.4627 72.6839 43.9476 72.9292C44.4457 73.1609 45.1994 73.3926 46.2087 73.6243C47.2573 73.8833 48.1159 74.1422 48.7844 74.4012C49.4529 74.6601 50.023 75.069 50.4949 75.6278C50.9799 76.1866 51.2224 76.9431 51.2224 77.8971C51.2224 78.7149 50.9996 79.4645 50.5539 80.146C50.1214 80.8138 49.466 81.3454 48.5878 81.7406C47.7095 82.1359 46.6413 82.3335 45.3829 82.3335Z" fill="#2352FF"/>
<path d="M65.9232 82.0882L65.9035 73.5016L61.8533 80.5753H60.418L56.3874 73.6856V82.0882H53.3988V67.7773H56.0335L61.1848 76.6705L66.2574 67.7773H68.8724L68.9117 82.0882H65.9232Z" fill="#2352FF"/>
<path d="M81.241 79.0215H74.851L73.632 82.0882H70.3682L76.5026 67.7773H79.6484L85.8025 82.0882H82.46L81.241 79.0215ZM80.2383 76.5069L78.0558 71.0279L75.8734 76.5069H80.2383Z" fill="#2352FF"/>
<path d="M95.9994 82.0882L93.3451 78.1016H93.1878H90.4155V82.0882H87.2304V67.7773H93.1878C94.4068 67.7773 95.462 67.9886 96.3533 68.4111C97.2577 68.8336 97.9524 69.4333 98.4374 70.2102C98.9224 70.987 99.1649 71.907 99.1649 72.9701C99.1649 74.0332 98.9159 74.9532 98.4178 75.7301C97.9328 76.4933 97.2381 77.0794 96.3337 77.4882L99.4205 82.0882H95.9994ZM95.9404 72.9701C95.9404 72.166 95.6914 71.5526 95.1933 71.1301C94.6952 70.694 93.9677 70.4759 93.0109 70.4759H90.4155V75.4643H93.0109C93.9677 75.4643 94.6952 75.2462 95.1933 74.8101C95.6914 74.3739 95.9404 73.7606 95.9404 72.9701Z" fill="#2352FF"/>
<path d="M104.347 70.4759H99.9432V67.7773H111.937V70.4759H107.533V82.0882H104.347V70.4759Z" fill="#2352FF"/>
<path d="M25.7474 98.9852C24.5579 98.9852 23.4795 98.7305 22.5123 98.2211C21.5563 97.7006 20.8003 96.9863 20.2445 96.0783C19.6997 95.1592 19.4274 94.1238 19.4274 92.9721C19.4274 91.8204 19.6997 90.7905 20.2445 89.8825C20.8003 88.9633 21.5563 88.2491 22.5123 87.7397C23.4795 87.2192 24.5634 86.959 25.7641 86.959C26.7757 86.959 27.6873 87.1362 28.4988 87.4905C29.3215 87.8449 30.0107 88.3543 30.5666 89.0187L28.8323 90.6134C28.043 89.7053 27.0647 89.2513 25.8975 89.2513C25.1749 89.2513 24.5301 89.4118 23.9631 89.733C23.3961 90.043 22.9514 90.4805 22.6291 91.0452C22.3178 91.61 22.1621 92.2523 22.1621 92.9721C22.1621 93.6919 22.3178 94.3342 22.6291 94.8989C22.9514 95.4637 23.3961 95.9066 23.9631 96.2278C24.5301 96.5379 25.1749 96.6929 25.8975 96.6929C27.0647 96.6929 28.043 96.2333 28.8323 95.3142L30.5666 96.9088C30.0107 97.5843 29.3215 98.0993 28.4988 98.4536C27.6762 98.808 26.759 98.9852 25.7474 98.9852Z" fill="#2352FF"/>
<path d="M37.7996 98.9852C36.5878 98.9852 35.4928 98.7249 34.5145 98.2045C33.5473 97.684 32.7858 96.9697 32.23 96.0617C31.6852 95.1426 31.4129 94.1127 31.4129 92.9721C31.4129 91.8315 31.6852 90.8071 32.23 89.8991C32.7858 88.98 33.5473 88.2602 34.5145 87.7397C35.4928 87.2192 36.5878 86.959 37.7996 86.959C39.0114 86.959 40.1008 87.2192 41.068 87.7397C42.0352 88.2602 42.7967 88.98 43.3526 89.8991C43.9084 90.8071 44.1863 91.8315 44.1863 92.9721C44.1863 94.1127 43.9084 95.1426 43.3526 96.0617C42.7967 96.9697 42.0352 97.684 41.068 98.2045C40.1008 98.7249 39.0114 98.9852 37.7996 98.9852ZM37.7996 96.6929C38.4889 96.6929 39.1114 96.5379 39.6673 96.2278C40.2231 95.9066 40.6567 95.4637 40.968 94.8989C41.2903 94.3342 41.4515 93.6919 41.4515 92.9721C41.4515 92.2523 41.2903 91.61 40.968 91.0452C40.6567 90.4805 40.2231 90.043 39.6673 89.733C39.1114 89.4118 38.4889 89.2513 37.7996 89.2513C37.1103 89.2513 36.4878 89.4118 35.9319 89.733C35.3761 90.043 34.937 90.4805 34.6146 91.0452C34.3033 91.61 34.1477 92.2523 34.1477 92.9721C34.1477 93.6919 34.3033 94.3342 34.6146 94.8989C34.937 95.4637 35.3761 95.9066 35.9319 96.2278C36.4878 96.5379 37.1103 96.6929 37.7996 96.6929Z" fill="#2352FF"/>
<path d="M56.8389 98.7858L56.8222 91.8093L53.387 97.5566H52.1697L48.7512 91.9588V98.7858H46.2166V87.1583H48.4511L52.8201 94.384L57.1224 87.1583H59.3402L59.3735 98.7858H56.8389Z" fill="#2352FF"/>
<path d="M81.4755 98.9852C79.8079 98.9852 78.5073 98.5256 77.5734 97.6065C76.6507 96.6874 76.1894 95.3751 76.1894 93.6698V87.1583H78.8908V93.5701C78.8908 95.652 79.7579 96.6929 81.4922 96.6929C82.3371 96.6929 82.9819 96.4438 83.4265 95.9454C83.8712 95.436 84.0936 94.6443 84.0936 93.5701V87.1583H86.7616V93.6698C86.7616 95.3751 86.2947 96.6874 85.3609 97.6065C84.4382 98.5256 83.1431 98.9852 81.4755 98.9852Z" fill="#2352FF"/>
<path d="M100.137 87.1583V98.7859H97.919L92.0992 91.7263V98.7859H89.4312V87.1583H91.6657L97.4688 94.2179V87.1583H100.137Z" fill="#2352FF"/>
<path d="M111.937 96.6265V98.7859H102.899V87.1583H111.72V89.3177H105.583V91.8426H111.003V93.9355H105.583V96.6265H111.937Z" fill="#2352FF"/>
<path d="M71.7384 98.7858L71.7218 91.8093L68.2866 97.5566H67.0693L63.6508 91.9588V98.7858H61.1161V87.1583H63.3506L67.7196 94.384L72.0219 87.1583H74.2397L74.2731 98.7858H71.7384Z" fill="#2352FF"/>
<path fill-rule="evenodd" clip-rule="evenodd" d="M81.0069 13.9634L130.438 49.5832V123.5H126.275V51.7145L81.3474 19.3399L10.4075 85.5505V119.337H69.3822V123.5H6.24456V83.7415L81.0069 13.9634Z" fill="#FFC107"/>
</svg>
